<svg xmlns="http://www.w3.org/2000/svg" xmlns:xlink="http://www.w3.org/1999/xlink" width="1440" zoomAndPan="magnify" viewBox="0 0 1080 1919.999921" height="2560" preserveAspectRatio="xMidYMid meet" version="1.0"><defs><clipPath id="60a5714f9d"><path d="M 366 1062 L 539.90625 1062 L 539.90625 1241.558594 L 366 1241.558594 Z M 366 1062 " clip-rule="nonzero"/></clipPath></defs><g clip-path="url(#60a5714f9d)"><path fill="#000000" d="M 484.257812 1241.527344 L 520.644531 1241.527344 C 531.125 1241.527344 539.699219 1233.003906 539.699219 1222.515625 L 539.699219 1132.691406 C 539.699219 1126.734375 536.84375 1121.070312 532.078125 1117.554688 L 464.308594 1066.535156 C 457.578125 1061.527344 448.230469 1061.527344 441.5 1066.535156 L 373.730469 1117.496094 C 368.96875 1121.070312 366.109375 1126.734375 366.109375 1132.691406 L 366.109375 1222.515625 C 366.109375 1233.003906 374.683594 1241.527344 385.164062 1241.527344 L 421.550781 1241.527344 C 424.886719 1241.527344 427.507812 1238.90625 427.507812 1235.566406 L 427.507812 1201.472656 C 427.507812 1187.46875 438.941406 1176.082031 452.933594 1176.082031 C 459.664062 1176.082031 466.035156 1178.765625 470.859375 1183.535156 C 475.625 1188.300781 478.304688 1194.679688 478.304688 1201.472656 L 478.304688 1235.566406 C 478.304688 1238.90625 480.921875 1241.527344 484.257812 1241.527344 Z M 484.257812 1241.527344 " fill-opacity="1" fill-rule="nonzero"/></g></svg>