<svg width="2560" height="1440" viewBox="0 0 2560 1440" fill="none" xmlns="http://www.w3.org/2000/svg">
<g clip-path="url(#clip0_156_2478)">
<path d="M2303.38 598.552C2280.25 602.641 2276.94 605.943 2272.86 629.083C2268.78 605.953 2265.46 602.641 2242.35 598.552C2265.47 594.469 2268.79 591.167 2272.86 568.021C2276.95 591.156 2280.26 594.469 2303.38 598.552Z" fill="#ECC889"/>
<path d="M1801.55 90.9741C1772.48 96.1095 1768.32 100.271 1763.18 129.349C1758.05 100.271 1753.89 96.1095 1724.82 90.9741C1753.89 85.8387 1758.05 81.6772 1763.18 52.5991C1768.32 81.6772 1772.48 85.8387 1801.55 90.9741Z" fill="#ECC889"/>
<mask id="mask0_156_2478" style="mask-type:luminance" maskUnits="userSpaceOnUse" x="1491" y="438" width="85" height="86">
<path d="M1576 438.667V524H1491.48V438.667H1576Z" fill="white"/>
</mask>
<g mask="url(#mask0_156_2478)">
<path d="M1575.39 481.005C1543.68 486.604 1539.14 491.146 1533.54 522.865C1527.94 491.146 1523.4 486.604 1491.68 481.005C1523.4 475.401 1527.94 470.865 1533.54 439.141C1539.14 470.865 1543.68 475.401 1575.39 481.005Z" fill="#FFC0A7"/>
</g>
<path d="M2418.99 246.443C2405.11 248.89 2403.14 250.885 2400.69 264.755C2398.24 250.875 2396.24 248.89 2382.38 246.443C2396.26 243.995 2398.24 242.005 2400.69 228.135C2403.14 242.015 2405.13 243.995 2418.99 246.443Z" fill="#FFC0A7"/>
<path d="M1891.3 452.833C1882.05 454.469 1880.73 455.792 1879.09 465.047C1877.46 455.792 1876.14 454.469 1866.89 452.833C1876.14 451.198 1877.46 449.875 1879.09 440.625C1880.73 449.875 1882.05 451.198 1891.3 452.833Z" fill="#ECC889"/>
<path d="M2542.68 135.396C2517.57 139.828 2513.97 143.422 2509.54 168.537C2505.11 143.422 2501.52 139.828 2476.41 135.396C2501.52 130.964 2505.11 127.365 2509.54 102.255C2513.97 127.365 2517.57 130.964 2542.68 135.396Z" fill="#FFC0A7"/>
<path d="M2400.58 278.948C2386.7 281.396 2384.72 283.39 2382.27 297.255C2379.82 283.38 2377.83 281.396 2363.96 278.948C2377.84 276.5 2379.82 274.505 2382.27 260.635C2384.72 274.515 2386.71 276.5 2400.58 278.948Z" fill="#FFC0A7"/>
<mask id="mask1_156_2478" style="mask-type:luminance" maskUnits="userSpaceOnUse" x="1888" y="641" width="80" height="80">
<path d="M1968 641.333V720.094H1888V641.333H1968Z" fill="white"/>
</mask>
<g mask="url(#mask1_156_2478)">
<path d="M1967.62 680.896C1937.89 686.146 1933.64 690.396 1928.38 720.146C1923.12 690.406 1918.88 686.146 1889.14 680.896C1918.87 675.641 1923.12 671.391 1928.38 641.641C1933.64 671.38 1937.88 675.641 1967.62 680.896Z" fill="#BBBEA0"/>
</g>
<path d="M2164.94 473.422C2154.36 475.281 2152.85 476.802 2150.99 487.375C2149.12 476.802 2147.61 475.281 2137.04 473.422C2147.61 471.557 2149.12 470.042 2150.99 459.463C2152.85 470.042 2154.36 471.557 2164.94 473.422Z" fill="#ECC889"/>
<path d="M2500.56 507.005C2486.03 509.573 2483.94 511.651 2481.38 526.193C2478.81 511.651 2476.73 509.573 2462.19 507.005C2476.73 504.438 2478.81 502.36 2481.38 487.818C2483.94 502.36 2486.03 504.438 2500.56 507.005Z" fill="#ECC889"/>
<path d="M2189.4 200.943C2168.92 204.557 2165.98 207.495 2162.37 227.974C2158.76 207.485 2155.82 204.547 2135.34 200.943C2155.83 197.323 2158.77 194.386 2162.37 173.912C2165.99 194.396 2168.93 197.333 2189.4 200.943Z" fill="#BBBEA0"/>
<path d="M1861.78 321.198C1846.58 323.885 1844.41 326.052 1841.73 341.265C1839.05 326.062 1836.86 323.885 1821.68 321.198C1836.88 318.515 1839.06 316.349 1841.73 301.135C1844.42 316.333 1846.59 318.515 1861.78 321.198Z" fill="#BBBEA0"/>
<path d="M2048.79 359.661C2040.86 361.057 2039.73 362.198 2038.33 370.125C2036.93 362.198 2035.8 361.057 2027.86 359.661C2035.8 358.265 2036.93 357.125 2038.33 349.198C2039.73 357.125 2040.86 358.265 2048.79 359.661Z" fill="#BBBEA0"/>
<path d="M2462.85 624.557C2437.08 629.104 2433.4 632.792 2428.84 658.573C2424.29 632.802 2420.61 629.115 2394.83 624.557C2420.6 620.005 2424.28 616.323 2428.84 590.537C2433.39 616.313 2437.07 619.995 2462.85 624.557Z" fill="#FFC0A7"/>
<path d="M1908.73 430.625C1901.46 431.901 1900.42 432.953 1899.14 440.214C1897.86 432.943 1896.81 431.901 1889.56 430.625C1896.82 429.349 1897.86 428.297 1899.14 421.037C1900.42 428.307 1901.47 429.349 1908.73 430.625Z" fill="#BBBEA0"/>
<path d="M1605.05 155.438C1589.85 158.125 1587.68 160.292 1585 175.505C1582.31 160.302 1580.14 158.125 1564.95 155.438C1580.15 152.75 1582.32 150.583 1585 135.375C1587.69 150.573 1589.86 152.75 1605.05 155.438Z" fill="#ECC889"/>
<path d="M2610.32 429C2579.92 434.365 2575.57 438.719 2570.2 469.12C2564.84 438.719 2560.49 434.365 2530.09 429C2560.49 423.636 2564.84 419.281 2570.2 388.88C2575.57 419.281 2579.92 423.636 2610.32 429Z" fill="#ECC889"/>
<path d="M2421.45 47.0991C2398.32 51.1825 2395.01 54.4845 2390.94 77.6252C2386.85 54.495 2383.54 51.1825 2360.42 47.0991C2383.55 43.0106 2386.86 39.7085 2390.94 16.5679C2395.02 39.6981 2398.33 43.0106 2421.45 47.0991Z" fill="#ECC889"/>
<path d="M2501.33 216.651C2472.26 221.786 2468.1 225.948 2462.96 255.026C2457.83 225.948 2453.67 221.786 2424.59 216.651C2453.67 211.515 2457.83 207.354 2462.96 178.276C2468.1 207.354 2472.26 211.515 2501.33 216.651Z" fill="#ECC889"/>
<path d="M1828.15 106.682C1819.56 108.203 1818.33 109.427 1816.81 118.026C1815.29 109.437 1814.06 108.213 1805.46 106.682C1814.05 105.167 1815.28 103.943 1816.81 95.3384C1818.32 103.932 1819.55 105.156 1828.15 106.682Z" fill="#FFC0A7"/>
<path d="M2489.51 304.948C2462.42 309.74 2458.54 313.604 2453.76 340.714C2448.97 313.615 2445.1 309.74 2417.99 304.948C2445.09 300.161 2448.97 296.292 2453.76 269.188C2458.54 296.281 2462.41 300.161 2489.51 304.948Z" fill="#FFC0A7"/>
<path d="M2056.03 -38.495C2024.97 -33.0106 2020.53 -28.5679 2015.05 2.50505C2009.57 -28.5575 2005.11 -33.0002 1974.07 -38.495C2005.13 -43.9741 2009.57 -48.4168 2015.05 -79.4897C2020.53 -48.4272 2024.98 -43.9845 2056.03 -38.495Z" fill="#FFC0A7"/>
<path d="M2417.68 531.922C2391.25 536.594 2387.47 540.375 2382.8 566.807C2378.14 540.375 2374.35 536.594 2347.92 531.922C2374.35 527.255 2378.14 523.474 2382.8 497.037C2387.47 523.474 2391.25 527.255 2417.68 531.922Z" fill="#BBBEA0"/>
<path d="M1835.21 24.8854C1823.32 26.9896 1821.61 28.6875 1819.52 40.5833C1817.41 28.6875 1815.71 26.9896 1803.82 24.8854C1815.71 22.7865 1817.41 21.0833 1819.52 9.1875C1821.61 21.0833 1823.32 22.7865 1835.21 24.8854Z" fill="#BBBEA0"/>
<path d="M2146.16 639.182C2127.66 642.453 2125.01 645.099 2121.74 663.604C2118.47 645.099 2115.82 642.453 2097.32 639.182C2115.82 635.911 2118.47 633.265 2121.74 614.76C2125.01 633.265 2127.66 635.911 2146.16 639.182Z" fill="#BBBEA0"/>
<path d="M2295.46 496.172C2272.99 500.136 2269.78 503.354 2265.81 525.823C2261.85 503.354 2258.63 500.136 2236.16 496.172C2258.63 492.208 2261.85 488.99 2265.81 466.521C2269.78 488.99 2272.99 492.208 2295.46 496.172Z" fill="#ECC889"/>
<path d="M1998.65 142.979C1976.18 146.943 1972.97 150.161 1969 172.63C1965.04 150.161 1961.82 146.943 1939.35 142.979C1961.82 139.016 1965.04 135.797 1969 113.328C1972.97 135.797 1976.18 139.016 1998.65 142.979Z" fill="#BBBEA0"/>
<path d="M2303.38 1318.52C2280.25 1322.6 2276.94 1325.9 2272.86 1349.05C2268.78 1325.91 2265.46 1322.6 2242.35 1318.52C2265.47 1314.43 2268.79 1311.13 2272.86 1287.98C2276.95 1311.11 2280.26 1314.43 2303.38 1318.52Z" fill="#ECC889"/>
<path d="M1801.55 810.938C1772.48 816.073 1768.32 820.229 1763.18 849.307C1758.05 820.229 1753.89 816.073 1724.82 810.938C1753.89 805.802 1758.05 801.641 1763.18 772.562C1768.32 801.641 1772.48 805.802 1801.55 810.938Z" fill="#ECC889"/>
<path d="M2085.65 657.63C2062.52 661.719 2059.2 665.021 2055.13 688.161C2051.05 665.031 2047.73 661.719 2024.61 657.63C2047.74 653.547 2051.06 650.245 2055.13 627.104C2059.21 650.234 2062.53 653.547 2085.65 657.63Z" fill="#ECC889"/>
<mask id="mask2_156_2478" style="mask-type:luminance" maskUnits="userSpaceOnUse" x="1491" y="1158" width="85" height="86">
<path d="M1576 1158.67V1244H1491.48V1158.67H1576Z" fill="white"/>
</mask>
<g mask="url(#mask2_156_2478)">
<path d="M1575.39 1200.96C1543.68 1206.57 1539.14 1211.1 1533.54 1242.83C1527.94 1211.1 1523.4 1206.57 1491.68 1200.96C1523.4 1195.36 1527.94 1190.82 1533.54 1159.1C1539.14 1190.82 1543.68 1195.36 1575.39 1200.96Z" fill="#FFC0A7"/>
</g>
<path d="M2418.99 966.406C2405.11 968.854 2403.14 970.849 2400.69 984.714C2398.24 970.839 2396.24 968.854 2382.38 966.406C2396.26 963.958 2398.24 961.964 2400.69 948.094C2403.14 961.974 2405.13 963.958 2418.99 966.406Z" fill="#FFC0A7"/>
<path d="M1891.3 1172.8C1882.05 1174.43 1880.73 1175.76 1879.09 1185.01C1877.46 1175.76 1876.14 1174.43 1866.89 1172.8C1876.14 1171.16 1877.46 1169.84 1879.09 1160.58C1880.73 1169.84 1882.05 1171.16 1891.3 1172.8Z" fill="#ECC889"/>
<path d="M2542.68 855.354C2517.57 859.786 2513.97 863.385 2509.54 888.495C2505.11 863.385 2501.52 859.786 2476.41 855.354C2501.52 850.922 2505.11 847.328 2509.54 822.213C2513.97 847.328 2517.57 850.922 2542.68 855.354Z" fill="#FFC0A7"/>
<path d="M2400.58 998.906C2386.7 1001.35 2384.72 1003.35 2382.27 1017.22C2379.82 1003.34 2377.83 1001.35 2363.96 998.906C2377.84 996.458 2379.82 994.464 2382.27 980.599C2384.72 994.474 2386.71 996.458 2400.58 998.906Z" fill="#FFC0A7"/>
<path d="M1761.08 420.365C1739.28 424.208 1736.16 427.333 1732.31 449.151C1728.47 427.344 1725.33 424.224 1703.54 420.365C1725.35 416.521 1728.47 413.396 1732.31 391.578C1736.16 413.385 1739.29 416.505 1761.08 420.365Z" fill="#FFC0A7"/>
<mask id="mask3_156_2478" style="mask-type:luminance" maskUnits="userSpaceOnUse" x="1616" y="310" width="66" height="65">
<path d="M1681.33 310.094V374.667H1616V310.094H1681.33Z" fill="white"/>
</mask>
<g mask="url(#mask3_156_2478)">
<path d="M1681.17 342.359C1656.72 346.672 1653.22 350.182 1648.91 374.625C1644.6 350.172 1641.09 346.672 1616.65 342.359C1641.1 338.047 1644.6 334.536 1648.91 310.094C1653.22 334.547 1656.73 338.047 1681.17 342.359Z" fill="#ECC889"/>
</g>
<path d="M2047.29 437.156C2038.04 438.792 2036.71 440.114 2035.08 449.37C2033.44 440.114 2032.12 438.792 2022.87 437.156C2032.12 435.521 2033.44 434.198 2035.08 424.948C2036.71 434.198 2038.04 435.521 2047.29 437.156Z" fill="#FFC0A7"/>
<path d="M1654.84 659.255C1631.05 663.464 1627.65 666.865 1623.45 690.656C1619.24 666.865 1615.84 663.464 1592.05 659.255C1615.84 655.052 1619.24 651.651 1623.45 627.859C1627.65 651.651 1631.05 655.052 1654.84 659.255Z" fill="#BBBEA0"/>
<path d="M1967.62 1400.85C1937.89 1406.11 1933.64 1410.35 1928.38 1440.1C1923.12 1410.36 1918.88 1406.11 1889.14 1400.85C1918.87 1395.6 1923.12 1391.35 1928.38 1361.6C1933.64 1391.34 1937.88 1395.6 1967.62 1400.85Z" fill="#BBBEA0"/>
<path d="M2164.94 1193.38C2154.36 1195.24 2152.85 1196.76 2150.99 1207.33C2149.12 1196.76 2147.61 1195.24 2137.04 1193.38C2147.61 1191.52 2149.12 1190 2150.99 1179.43C2152.85 1190 2154.36 1191.52 2164.94 1193.38Z" fill="#ECC889"/>
<path d="M2500.56 1226.96C2486.03 1229.53 2483.94 1231.61 2481.38 1246.15C2478.81 1231.61 2476.73 1229.53 2462.19 1226.96C2476.73 1224.4 2478.81 1222.32 2481.38 1207.78C2483.94 1222.32 2486.03 1224.4 2500.56 1226.96Z" fill="#ECC889"/>
<path d="M2189.4 920.901C2168.92 924.521 2165.98 927.458 2162.37 947.932C2158.76 927.448 2155.82 924.51 2135.34 920.901C2155.83 917.281 2158.77 914.349 2162.37 893.87C2165.99 914.359 2168.93 917.292 2189.4 920.901Z" fill="#BBBEA0"/>
<path d="M1861.78 1041.16C1846.58 1043.85 1844.41 1046.02 1841.73 1061.22C1839.05 1046.03 1836.86 1043.85 1821.68 1041.16C1836.88 1038.47 1839.06 1036.31 1841.73 1021.09C1844.42 1036.3 1846.59 1038.47 1861.78 1041.16Z" fill="#BBBEA0"/>
<path d="M2048.79 1079.62C2040.86 1081.02 2039.73 1082.16 2038.33 1090.09C2036.93 1082.16 2035.8 1081.02 2027.86 1079.62C2035.8 1078.22 2036.93 1077.09 2038.33 1069.16C2039.73 1077.09 2040.86 1078.22 2048.79 1079.62Z" fill="#BBBEA0"/>
<path d="M2462.85 1344.52C2437.08 1349.07 2433.4 1352.75 2428.84 1378.54C2424.29 1352.76 2420.61 1349.08 2394.83 1344.52C2420.6 1339.96 2424.28 1336.28 2428.84 1310.49C2433.39 1336.27 2437.07 1339.95 2462.85 1344.52Z" fill="#FFC0A7"/>
<path d="M1908.73 1150.58C1901.46 1151.86 1900.42 1152.92 1899.14 1160.17C1897.86 1152.91 1896.81 1151.86 1889.56 1150.58C1896.82 1149.31 1897.86 1148.26 1899.14 1140.99C1900.42 1148.27 1901.47 1149.31 1908.73 1150.58Z" fill="#BBBEA0"/>
<path d="M1605.05 875.396C1589.85 878.083 1587.68 880.25 1585 895.464C1582.31 880.261 1580.14 878.083 1564.95 875.396C1580.15 872.714 1582.32 870.547 1585 855.333C1587.69 870.531 1589.86 872.714 1605.05 875.396Z" fill="#ECC889"/>
<path d="M2610.32 1148.96C2579.92 1154.32 2575.57 1158.68 2570.2 1189.08C2564.84 1158.68 2560.49 1154.32 2530.09 1148.96C2560.49 1143.6 2564.84 1139.24 2570.2 1108.84C2575.57 1139.24 2579.92 1143.6 2610.32 1148.96Z" fill="#ECC889"/>
<path d="M2421.45 767.057C2398.32 771.14 2395.01 774.448 2390.94 797.588C2386.85 774.458 2383.54 771.14 2360.42 767.057C2383.55 762.974 2386.86 759.667 2390.94 736.526C2395.02 759.656 2398.33 762.974 2421.45 767.057Z" fill="#ECC889"/>
<path d="M2098.44 493.495C2086.55 495.599 2084.84 497.297 2082.74 509.193C2080.64 497.297 2078.94 495.599 2067.05 493.495C2078.94 491.396 2080.64 489.693 2082.74 477.797C2084.84 489.693 2086.55 491.396 2098.44 493.495Z" fill="#BBBEA0"/>
<path d="M2501.33 936.609C2472.26 941.745 2468.1 945.906 2462.96 974.984C2457.83 945.906 2453.67 941.745 2424.59 936.609C2453.67 931.474 2457.83 927.318 2462.96 898.234C2468.1 927.318 2472.26 931.474 2501.33 936.609Z" fill="#ECC889"/>
<path d="M1828.15 826.646C1819.56 828.162 1818.33 829.386 1816.81 837.99C1815.29 829.396 1814.06 828.172 1805.46 826.646C1814.05 825.13 1815.28 823.901 1816.81 815.302C1818.32 823.891 1819.55 825.115 1828.15 826.646Z" fill="#FFC0A7"/>
<path d="M2489.51 1024.91C2462.42 1029.7 2458.54 1033.57 2453.76 1060.67C2448.97 1033.58 2445.1 1029.7 2417.99 1024.91C2445.09 1020.12 2448.97 1016.26 2453.76 989.146C2458.54 1016.24 2462.41 1020.12 2489.51 1024.91Z" fill="#FFC0A7"/>
<path d="M2056.03 681.469C2024.97 686.948 2020.53 691.391 2015.05 722.464C2009.57 691.401 2005.11 686.958 1974.07 681.469C2005.13 675.984 2009.57 671.542 2015.05 640.469C2020.53 671.531 2024.98 675.974 2056.03 681.469Z" fill="#FFC0A7"/>
<path d="M1732.08 604.547C1707.64 608.859 1704.14 612.37 1699.82 636.807C1695.52 612.354 1692.01 608.859 1667.57 604.547C1692.02 600.234 1695.52 596.724 1699.82 572.281C1704.14 596.734 1707.65 600.234 1732.08 604.547Z" fill="#BBBEA0"/>
<path d="M2417.68 1251.89C2391.25 1256.55 2387.47 1260.33 2382.8 1286.77C2378.14 1260.33 2374.35 1256.55 2347.92 1251.89C2374.35 1247.21 2378.14 1243.43 2382.8 1217C2387.47 1243.43 2391.25 1247.21 2417.68 1251.89Z" fill="#BBBEA0"/>
<path d="M1835.21 744.849C1823.32 746.948 1821.61 748.651 1819.52 760.547C1817.41 748.651 1815.71 746.948 1803.82 744.849C1815.71 742.745 1817.41 741.042 1819.52 729.146C1821.61 741.042 1823.32 742.745 1835.21 744.849Z" fill="#BBBEA0"/>
<path d="M2146.16 1359.14C2127.66 1362.42 2125.01 1365.06 2121.74 1383.56C2118.47 1365.06 2115.82 1362.42 2097.32 1359.14C2115.82 1355.87 2118.47 1353.23 2121.74 1334.72C2125.01 1353.23 2127.66 1355.87 2146.16 1359.14Z" fill="#BBBEA0"/>
<path d="M2180.45 556.333C2154.02 561 2150.24 564.781 2145.57 591.219C2140.9 564.781 2137.12 561.005 2110.69 556.333C2137.12 551.661 2140.9 547.88 2145.57 521.448C2150.24 547.88 2154.02 551.661 2180.45 556.333Z" fill="#FFC0A7"/>
<path d="M2295.46 1216.13C2272.99 1220.1 2269.78 1223.31 2265.81 1245.79C2261.85 1223.31 2258.63 1220.1 2236.16 1216.13C2258.63 1212.17 2261.85 1208.95 2265.81 1186.48C2269.78 1208.95 2272.99 1212.17 2295.46 1216.13Z" fill="#ECC889"/>
<path d="M1998.65 862.938C1976.18 866.906 1972.97 870.12 1969 892.594C1965.04 870.12 1961.82 866.906 1939.35 862.938C1961.82 858.974 1965.04 855.755 1969 833.287C1972.97 855.755 1976.18 858.974 1998.65 862.938Z" fill="#BBBEA0"/>
<path d="M1958.96 587.208C1929.22 592.464 1924.97 596.714 1919.71 626.464C1914.46 596.724 1910.21 592.464 1880.47 587.208C1910.2 581.958 1914.46 577.708 1919.71 547.958C1924.97 577.698 1929.21 581.958 1958.96 587.208Z" fill="#ECC889"/>
<path d="M1256.17 587.505C1233.04 591.594 1229.72 594.896 1225.65 618.036C1221.57 594.906 1218.25 591.594 1195.14 587.505C1218.26 583.422 1221.58 580.12 1225.65 556.979C1229.73 580.109 1233.05 583.422 1256.17 587.505Z" fill="#ECC889"/>
<path d="M754.338 79.9272C725.265 85.0627 721.104 89.2241 715.969 118.302C710.838 89.2241 706.677 85.0627 677.604 79.9272C706.677 74.7918 710.838 70.6356 715.969 41.5522C721.104 70.6356 725.265 74.7918 754.338 79.9272Z" fill="#ECC889"/>
<mask id="mask4_156_2478" style="mask-type:luminance" maskUnits="userSpaceOnUse" x="444" y="428" width="86" height="84">
<path d="M529.333 428V512H444.265V428H529.333Z" fill="white"/>
</mask>
<g mask="url(#mask4_156_2478)">
<path d="M528.177 469.958C496.463 475.557 491.922 480.099 486.323 511.823C480.724 480.099 476.182 475.557 444.463 469.958C476.182 464.354 480.724 459.818 486.323 428.094C491.922 459.818 496.463 464.354 528.177 469.958Z" fill="#FFC0A7"/>
</g>
<path d="M1371.78 235.396C1357.9 237.849 1355.92 239.838 1353.47 253.708C1351.03 239.828 1349.03 237.849 1335.17 235.396C1349.04 232.948 1351.03 230.958 1353.47 217.088C1355.92 230.969 1357.91 232.948 1371.78 235.396Z" fill="#FFC0A7"/>
<path d="M844.088 441.786C834.833 443.422 833.515 444.745 831.88 454C830.245 444.745 828.922 443.422 819.672 441.786C828.922 440.151 830.245 438.833 831.88 429.578C833.515 438.828 834.833 440.151 844.088 441.786Z" fill="#ECC889"/>
<path d="M1495.46 124.349C1470.35 128.781 1466.76 132.375 1462.33 157.49C1457.9 132.375 1454.3 128.781 1429.19 124.349C1454.3 119.917 1457.9 116.318 1462.33 91.2085C1466.76 116.318 1470.35 119.917 1495.46 124.349Z" fill="#FFC0A7"/>
<path d="M1353.36 267.901C1339.49 270.349 1337.5 272.344 1335.06 286.208C1332.61 272.333 1330.61 270.349 1316.75 267.901C1330.62 265.453 1332.61 263.458 1335.06 249.588C1337.5 263.469 1339.5 265.453 1353.36 267.901Z" fill="#FFC0A7"/>
<mask id="mask5_156_2478" style="mask-type:luminance" maskUnits="userSpaceOnUse" x="841" y="629" width="81" height="81">
<path d="M921.333 629.333V709.047H841.333V629.333H921.333Z" fill="white"/>
</mask>
<g mask="url(#mask5_156_2478)">
<path d="M920.411 669.849C890.677 675.099 886.422 679.349 881.166 709.099C875.911 679.359 871.666 675.099 841.922 669.849C871.656 664.594 875.911 660.344 881.166 630.594C886.422 660.333 890.666 664.594 920.411 669.849Z" fill="#BBBEA0"/>
</g>
<path d="M1117.72 462.375C1107.15 464.234 1105.64 465.755 1103.77 476.328C1101.91 465.755 1100.4 464.234 1089.82 462.375C1100.4 460.51 1101.91 458.995 1103.77 448.417C1105.64 458.995 1107.15 460.51 1117.72 462.375Z" fill="#ECC889"/>
<path d="M1453.35 495.958C1438.81 498.526 1436.73 500.61 1434.16 515.146C1431.6 500.61 1429.52 498.526 1414.98 495.958C1429.52 493.391 1431.6 491.313 1434.16 476.771C1436.73 491.313 1438.81 493.391 1453.35 495.958Z" fill="#ECC889"/>
<path d="M1142.19 189.896C1121.7 193.516 1118.77 196.448 1115.16 216.927C1111.54 196.438 1108.6 193.505 1088.13 189.896C1108.61 186.276 1111.55 183.339 1115.16 162.865C1118.78 183.349 1121.71 186.287 1142.19 189.896Z" fill="#BBBEA0"/>
<path d="M814.567 310.156C799.369 312.838 797.192 315.005 794.515 330.219C791.828 315.021 789.651 312.838 774.463 310.156C789.661 307.469 791.838 305.302 794.515 290.088C797.203 305.292 799.38 307.469 814.567 310.156Z" fill="#BBBEA0"/>
<path d="M1001.58 348.614C993.651 350.01 992.51 351.151 991.115 359.078C989.719 351.151 988.578 350.01 980.651 348.614C988.578 347.219 989.719 346.078 991.115 338.151C992.51 346.078 993.651 347.219 1001.58 348.614Z" fill="#BBBEA0"/>
<path d="M1415.64 613.511C1389.87 618.057 1386.19 621.745 1381.62 647.531C1377.08 621.755 1373.4 618.073 1347.61 613.511C1373.38 608.959 1377.07 605.276 1381.62 579.49C1386.18 605.266 1389.86 608.948 1415.64 613.511Z" fill="#FFC0A7"/>
<path d="M861.516 419.578C854.245 420.86 853.208 421.906 851.927 429.167C850.651 421.896 849.599 420.86 842.344 419.578C849.609 418.302 850.651 417.25 851.927 409.99C853.208 417.261 854.26 418.302 861.516 419.578Z" fill="#BBBEA0"/>
<path d="M557.838 144.391C542.64 147.078 540.463 149.245 537.786 164.458C535.099 149.255 532.922 147.078 517.734 144.391C532.932 141.703 535.109 139.536 537.786 124.328C540.474 139.526 542.651 141.703 557.838 144.391Z" fill="#ECC889"/>
<mask id="mask6_156_2478" style="mask-type:luminance" maskUnits="userSpaceOnUse" x="1482" y="377" width="82" height="82">
<path d="M1563.27 377.333V458.667H1482.67V377.333H1563.27Z" fill="white"/>
</mask>
<g mask="url(#mask6_156_2478)">
<path d="M1563.1 417.953C1532.71 423.318 1528.35 427.672 1522.99 458.073C1517.63 427.672 1513.27 423.318 1482.87 417.953C1513.27 412.589 1517.63 408.235 1522.99 377.833C1528.35 408.235 1532.71 412.589 1563.1 417.953Z" fill="#ECC889"/>
</g>
<path d="M1374.24 36.0522C1351.11 40.1356 1347.8 43.4377 1343.72 66.5835C1339.64 43.4481 1336.32 40.1356 1313.21 36.0522C1336.33 31.9637 1339.65 28.6616 1343.72 5.521C1347.81 28.6512 1351.12 31.9637 1374.24 36.0522Z" fill="#ECC889"/>
<path d="M1454.11 205.604C1425.04 210.739 1420.89 214.901 1415.75 243.979C1410.61 214.901 1406.45 210.739 1377.38 205.604C1406.45 200.469 1410.61 196.307 1415.75 167.229C1420.89 196.307 1425.04 200.469 1454.11 205.604Z" fill="#ECC889"/>
<path d="M780.932 95.6354C772.344 97.1563 771.12 98.3802 769.594 106.979C768.073 98.3906 766.849 97.1667 758.25 95.6354C766.838 94.1198 768.062 92.8958 769.594 84.2969C771.109 92.8854 772.333 94.1094 780.932 95.6354Z" fill="#FFC0A7"/>
<path d="M1442.3 293.901C1415.21 298.693 1411.33 302.557 1406.54 329.667C1401.76 302.568 1397.89 298.693 1370.78 293.901C1397.87 289.115 1401.76 285.245 1406.54 258.141C1411.33 285.234 1415.2 289.115 1442.3 293.901Z" fill="#FFC0A7"/>
<path d="M1370.47 520.88C1344.04 525.547 1340.26 529.328 1335.59 555.766C1330.92 529.328 1327.14 525.547 1300.71 520.88C1327.14 516.208 1330.92 512.427 1335.59 485.99C1340.26 512.427 1344.04 516.208 1370.47 520.88Z" fill="#BBBEA0"/>
<path d="M787.995 13.8385C776.104 15.9427 774.401 17.6406 772.297 29.5365C770.198 17.6406 768.495 15.9427 756.604 13.8385C768.495 11.7396 770.198 10.0365 772.297 -1.85938C774.401 10.0365 776.104 11.7396 787.995 13.8385Z" fill="#BBBEA0"/>
<path d="M1098.94 628.135C1080.44 631.406 1077.8 634.052 1074.53 652.557C1071.25 634.052 1068.61 631.406 1050.11 628.135C1068.61 624.864 1071.25 622.219 1074.53 603.713C1077.8 622.219 1080.44 624.864 1098.94 628.135Z" fill="#BBBEA0"/>
<path d="M1248.24 485.125C1225.78 489.089 1222.56 492.307 1218.6 514.776C1214.63 492.307 1211.42 489.089 1188.95 485.125C1211.42 481.162 1214.63 477.943 1218.6 455.474C1222.56 477.943 1225.78 481.162 1248.24 485.125Z" fill="#ECC889"/>
<path d="M951.438 131.932C928.969 135.896 925.75 139.115 921.786 161.583C917.823 139.115 914.604 135.896 892.141 131.932C914.604 127.969 917.823 124.75 921.786 102.281C925.75 124.75 928.969 127.969 951.438 131.932Z" fill="#BBBEA0"/>
<path d="M1067.84 1046.62C1062.71 1017.54 1058.55 1013.39 1029.47 1008.25C1058.55 1003.11 1062.71 998.953 1067.84 969.88C1072.98 998.953 1077.14 1003.11 1106.21 1008.25C1077.14 1013.39 1072.98 1017.54 1067.84 1046.62Z" fill="#ECC889"/>
<path d="M1221.15 1330.71C1217.06 1307.58 1213.75 1304.27 1190.61 1300.2C1213.74 1296.11 1217.06 1292.8 1221.15 1269.68C1225.23 1292.81 1228.53 1296.12 1251.68 1300.2C1228.54 1304.28 1225.23 1307.59 1221.15 1330.71Z" fill="#ECC889"/>
<mask id="mask7_156_2478" style="mask-type:luminance" maskUnits="userSpaceOnUse" x="634" y="736" width="86" height="86">
<path d="M720 736.547V821.333H634.667V736.547H720Z" fill="white"/>
</mask>
<g mask="url(#mask7_156_2478)">
<path d="M677.813 820.458C672.214 788.739 667.672 784.203 635.948 778.599C667.672 773 672.214 768.463 677.813 736.745C683.412 768.463 687.953 773 719.677 778.599C687.953 784.203 683.412 788.739 677.813 820.458Z" fill="#FFC0A7"/>
</g>
<path d="M705.979 1136.36C704.343 1127.11 703.026 1125.79 693.771 1124.16C703.026 1122.52 704.343 1121.2 705.979 1111.95C707.619 1121.2 708.937 1122.52 718.192 1124.16C708.937 1125.79 707.619 1127.11 705.979 1136.36Z" fill="#ECC889"/>
<path d="M1458.41 1006.15C1454.57 984.344 1451.45 981.224 1429.62 977.375C1451.43 973.531 1454.56 970.401 1458.41 948.604C1462.26 970.411 1465.38 973.531 1487.2 977.375C1465.39 981.224 1462.27 984.354 1458.41 1006.15Z" fill="#FFC0A7"/>
<mask id="mask8_156_2478" style="mask-type:luminance" maskUnits="userSpaceOnUse" x="1504" y="861" width="65" height="66">
<path d="M1568.68 861.333V926.667H1504V861.333H1568.68Z" fill="white"/>
</mask>
<g mask="url(#mask8_156_2478)">
<path d="M1536.42 926.24C1532.1 901.786 1528.59 898.292 1504.15 893.979C1528.6 889.667 1532.1 886.156 1536.42 861.719C1540.73 886.167 1544.24 889.667 1568.68 893.979C1544.23 898.292 1540.73 901.797 1536.42 926.24Z" fill="#ECC889"/>
</g>
<path d="M1441.62 1292.35C1439.98 1283.1 1438.66 1281.78 1429.41 1280.15C1438.66 1278.51 1439.98 1277.19 1441.62 1267.94C1443.26 1277.19 1444.58 1278.51 1453.83 1280.15C1444.58 1281.78 1443.26 1283.1 1441.62 1292.35Z" fill="#FFC0A7"/>
<path d="M1219.52 899.901C1215.32 876.114 1211.91 872.713 1188.12 868.51C1211.91 864.307 1215.32 860.906 1219.52 837.12C1223.72 860.906 1227.12 864.307 1250.92 868.51C1227.12 872.713 1223.72 876.114 1219.52 899.901Z" fill="#BBBEA0"/>
<mask id="mask9_156_2478" style="mask-type:luminance" maskUnits="userSpaceOnUse" x="438" y="1133" width="80" height="81">
<path d="M517.333 1133.33V1213.33H438.682V1133.33H517.333Z" fill="white"/>
</mask>
<g mask="url(#mask9_156_2478)">
<path d="M477.922 1212.69C472.666 1182.96 468.422 1178.7 438.672 1173.44C468.411 1168.19 472.666 1163.94 477.922 1134.2C483.177 1163.93 487.427 1168.19 517.177 1173.44C487.437 1178.7 483.177 1182.94 477.922 1212.69Z" fill="#BBBEA0"/>
</g>
<path d="M685.396 1410.01C683.531 1399.43 682.015 1397.92 671.442 1396.05C682.015 1394.19 683.531 1392.67 685.396 1382.1C687.26 1392.67 688.776 1394.19 699.349 1396.05C688.776 1397.92 687.26 1399.43 685.396 1410.01Z" fill="#ECC889"/>
<path d="M957.875 1434.46C954.255 1413.98 951.323 1411.05 930.844 1407.44C951.333 1403.82 954.266 1400.89 957.875 1380.41C961.495 1400.9 964.427 1403.83 984.906 1407.44C964.417 1411.06 961.484 1413.99 957.875 1434.46Z" fill="#BBBEA0"/>
<path d="M837.614 1106.85C834.927 1091.65 832.76 1089.47 817.552 1086.8C832.75 1084.11 834.927 1081.93 837.614 1066.74C840.302 1081.94 842.469 1084.12 857.682 1086.8C842.479 1089.48 840.302 1091.66 837.614 1106.85Z" fill="#BBBEA0"/>
<path d="M799.156 1293.86C797.755 1285.93 796.62 1284.79 788.687 1283.4C796.62 1281.99 797.755 1280.86 799.156 1272.93C800.552 1280.86 801.693 1281.99 809.62 1283.4C801.693 1284.79 800.552 1285.93 799.156 1293.86Z" fill="#BBBEA0"/>
<path d="M728.193 1153.8C726.911 1146.53 725.865 1145.48 718.604 1144.21C725.875 1142.93 726.911 1141.88 728.193 1134.62C729.469 1141.89 730.521 1142.93 737.781 1144.21C730.51 1145.48 729.469 1146.54 728.193 1153.8Z" fill="#BBBEA0"/>
<path d="M1003.38 850.12C1000.69 834.917 998.526 832.74 983.312 830.068C998.515 827.38 1000.69 825.203 1003.38 810.016C1006.07 825.214 1008.23 827.391 1023.44 830.068C1008.24 832.755 1006.07 834.932 1003.38 850.12Z" fill="#ECC889"/>
<path d="M1385.28 1343.51C1383.18 1331.61 1381.48 1329.91 1369.58 1327.81C1381.48 1325.71 1383.18 1324.01 1385.28 1312.11C1387.39 1324.01 1389.08 1325.71 1400.98 1327.81C1389.08 1329.91 1387.39 1331.61 1385.28 1343.51Z" fill="#BBBEA0"/>
<path d="M1052.13 1073.21C1050.61 1064.62 1049.39 1063.4 1040.79 1061.87C1049.38 1060.35 1050.6 1059.13 1052.13 1050.53C1053.65 1059.12 1054.87 1060.34 1063.47 1061.87C1054.89 1063.39 1053.66 1064.61 1052.13 1073.21Z" fill="#FFC0A7"/>
<path d="M1197.31 1301.09C1191.83 1270.04 1187.39 1265.6 1156.31 1260.11C1187.37 1254.64 1191.82 1250.18 1197.31 1219.14C1202.79 1250.19 1207.23 1254.64 1238.31 1260.11C1207.24 1265.6 1202.8 1270.05 1197.31 1301.09Z" fill="#FFC0A7"/>
<path d="M1274.23 977.151C1269.92 952.703 1266.41 949.203 1241.97 944.891C1266.42 940.578 1269.92 937.068 1274.23 912.63C1278.54 937.078 1282.05 940.578 1306.49 944.891C1282.04 949.203 1278.54 952.714 1274.23 977.151Z" fill="#BBBEA0"/>
<path d="M1133.93 1080.28C1131.83 1068.38 1130.12 1066.68 1118.23 1064.58C1130.12 1062.48 1131.83 1060.78 1133.93 1048.88C1136.03 1060.78 1137.73 1062.48 1149.63 1064.58C1137.73 1066.68 1136.03 1068.38 1133.93 1080.28Z" fill="#BBBEA0"/>
<path d="M519.635 1391.22C516.364 1372.72 513.718 1370.08 495.213 1366.81C513.718 1363.53 516.364 1360.89 519.635 1342.39C522.906 1360.89 525.552 1363.53 544.052 1366.81C525.552 1370.08 522.906 1372.72 519.635 1391.22Z" fill="#BBBEA0"/>
<path d="M1322.44 1425.52C1317.78 1399.08 1313.99 1395.31 1287.56 1390.64C1313.99 1385.97 1317.78 1382.19 1322.44 1355.76C1327.11 1382.19 1330.9 1385.97 1357.33 1390.64C1330.9 1395.31 1327.11 1399.08 1322.44 1425.52Z" fill="#FFC0A7"/>
<path d="M1015.84 1243.71C1011.87 1221.25 1008.66 1218.03 986.182 1214.07C1008.66 1210.1 1011.87 1206.89 1015.84 1184.42C1019.8 1206.89 1023.02 1210.1 1045.49 1214.07C1023.02 1218.03 1019.8 1221.25 1015.84 1243.71Z" fill="#BBBEA0"/>
<path d="M1291.57 1204.03C1286.31 1174.29 1282.06 1170.03 1252.31 1164.78C1282.05 1159.53 1286.31 1155.28 1291.57 1125.53C1296.82 1155.27 1301.07 1159.53 1330.82 1164.78C1301.08 1170.03 1296.82 1174.28 1291.57 1204.03Z" fill="#ECC889"/>
<path d="M87.9375 443.521C64.8125 447.604 61.4948 450.912 57.4219 474.052C53.3385 450.922 50.026 447.604 26.9115 443.521C50.0365 439.438 53.349 436.13 57.4219 412.99C61.5104 436.12 64.8229 439.438 87.9375 443.521Z" fill="#ECC889"/>
<path d="M203.552 91.4113C189.677 93.8592 187.698 95.854 185.244 109.724C182.797 95.8436 180.807 93.8592 166.942 91.4113C180.817 88.9634 182.797 86.9686 185.244 73.104C187.698 86.979 189.687 88.9634 203.552 91.4113Z" fill="#FFC0A7"/>
<path d="M327.239 -19.6354C302.13 -15.2083 298.531 -11.6094 294.104 13.5052C289.672 -11.6094 286.078 -15.2083 260.968 -19.6354C286.078 -24.0677 289.672 -27.6667 294.104 -52.7812C298.531 -27.6667 302.13 -24.0677 327.239 -19.6354Z" fill="#FFC0A7"/>
<path d="M185.141 123.917C171.26 126.364 169.281 128.354 166.833 142.224C164.385 128.344 162.391 126.364 148.526 123.917C162.401 121.463 164.385 119.474 166.833 105.604C169.281 119.484 171.271 121.463 185.141 123.917Z" fill="#FFC0A7"/>
<path d="M285.125 351.974C270.583 354.542 268.505 356.62 265.937 371.162C263.37 356.62 261.292 354.542 246.755 351.974C261.292 349.406 263.37 347.323 265.937 332.787C268.505 347.323 270.583 349.406 285.125 351.974Z" fill="#ECC889"/>
<path d="M247.417 469.521C221.646 474.073 217.963 477.755 213.401 503.542C208.849 477.771 205.167 474.083 179.385 469.521C205.156 464.974 208.838 461.292 213.401 435.505C217.948 461.276 221.635 464.964 247.417 469.521Z" fill="#FFC0A7"/>
<mask id="mask10_156_2478" style="mask-type:luminance" maskUnits="userSpaceOnUse" x="313" y="233" width="83" height="82">
<path d="M395.042 233.333V314.667H313.333V233.333H395.042Z" fill="white"/>
</mask>
<g mask="url(#mask10_156_2478)">
<path d="M394.875 273.969C364.479 279.328 360.125 283.688 354.766 314.089C349.401 283.688 345.047 279.328 314.651 273.969C345.047 268.604 349.401 264.25 354.766 233.849C360.125 264.25 364.479 268.604 394.875 273.969Z" fill="#ECC889"/>
</g>
<path d="M285.891 61.6196C256.818 66.755 252.656 70.9113 247.521 99.9946C242.391 70.9113 238.229 66.755 209.156 61.6196C238.229 56.4842 242.391 52.3228 247.521 23.2446C252.656 52.3228 256.818 56.4842 285.891 61.6196Z" fill="#ECC889"/>
<path d="M274.073 149.917C246.979 154.703 243.104 158.573 238.318 185.682C233.526 158.583 229.661 154.703 202.557 149.917C229.651 145.13 233.526 141.26 238.318 114.151C243.104 141.25 246.969 145.13 274.073 149.917Z" fill="#FFC0A7"/>
<path d="M202.245 376.891C175.812 381.563 172.031 385.344 167.364 411.776C162.693 385.344 158.911 381.563 132.484 376.891C158.911 372.224 162.693 368.443 167.364 342.005C172.031 368.443 175.812 372.224 202.245 376.891Z" fill="#BBBEA0"/>
<path d="M80.0205 341.141C57.5518 345.104 54.3382 348.323 50.3695 370.792C46.4059 348.323 43.1924 345.104 20.7236 341.141C43.1924 337.172 46.4059 333.958 50.3695 311.484C54.3382 333.958 57.5518 337.172 80.0205 341.141Z" fill="#ECC889"/>
<path d="M228.583 872.052C232.666 895.182 235.968 898.495 259.114 902.568C235.979 906.651 232.666 909.969 228.583 933.083C224.5 909.958 221.192 906.641 198.052 902.568C221.182 898.485 224.5 895.172 228.583 872.052Z" fill="#ECC889"/>
<path d="M82.8644 1284.13C84.4998 1293.38 85.8228 1294.7 95.0728 1296.34C85.8228 1297.97 84.4998 1299.3 82.8644 1308.55C81.229 1299.3 79.9061 1297.97 70.6509 1296.34C79.9061 1294.7 81.229 1293.38 82.8644 1284.13Z" fill="#ECC889"/>
<mask id="mask11_156_2478" style="mask-type:luminance" maskUnits="userSpaceOnUse" x="270" y="1206" width="81" height="81">
<path d="M350.088 1206.67V1286.67H270.667V1206.67H350.088Z" fill="white"/>
</mask>
<g mask="url(#mask11_156_2478)">
<path d="M310.922 1207.81C316.177 1237.54 320.422 1241.8 350.172 1247.05C320.432 1252.31 316.177 1256.55 310.922 1286.3C305.667 1256.56 301.422 1252.31 271.672 1247.05C301.411 1241.8 305.667 1237.55 310.922 1207.81Z" fill="#BBBEA0"/>
</g>
<path d="M103.448 1010.49C105.312 1021.06 106.828 1022.58 117.401 1024.44C106.828 1026.31 105.312 1027.82 103.448 1038.4C101.583 1027.82 100.068 1026.31 89.4946 1024.44C100.068 1022.58 101.583 1021.06 103.448 1010.49Z" fill="#ECC889"/>
<path d="M137.031 674.87C139.599 689.406 141.682 691.484 156.219 694.052C141.682 696.62 139.599 698.703 137.031 713.239C134.464 698.703 132.385 696.62 117.844 694.052C132.385 691.484 134.464 689.406 137.031 674.87Z" fill="#ECC889"/>
<path d="M-10.3125 1126.64C-8.91146 1134.57 -7.77604 1135.7 0.15625 1137.1C-7.77604 1138.5 -8.91146 1139.64 -10.3125 1147.57C-11.7083 1139.64 -12.8437 1138.5 -20.776 1137.1C-12.8437 1135.7 -11.7083 1134.57 -10.3125 1126.64Z" fill="#BBBEA0"/>
<path d="M254.583 712.578C259.135 738.349 262.818 742.031 288.604 746.594C262.828 751.141 259.146 754.823 254.583 780.604C250.031 754.833 246.349 751.151 220.562 746.594C246.338 742.042 250.021 738.359 254.583 712.578Z" fill="#FFC0A7"/>
<path d="M60.6507 1266.7C61.932 1273.97 62.984 1275.01 70.2393 1276.29C62.9684 1277.57 61.932 1278.62 60.6507 1285.88C59.3747 1278.61 58.3226 1277.57 51.0622 1276.29C58.333 1275.01 59.3747 1273.96 60.6507 1266.7Z" fill="#BBBEA0"/>
<mask id="mask12_156_2478" style="mask-type:luminance" maskUnits="userSpaceOnUse" x="18" y="564" width="82" height="83">
<path d="M100 564.948V646.667H18.6667V564.948H100Z" fill="white"/>
</mask>
<g mask="url(#mask12_156_2478)">
<path d="M59.0257 565.114C64.3903 595.51 68.7445 599.864 99.1455 605.229C68.7445 610.588 64.3903 614.942 59.0257 645.338C53.6663 614.942 49.307 610.588 18.9111 605.229C49.307 599.864 53.6663 595.51 59.0257 565.114Z" fill="#ECC889"/>
</g>
<path d="M161.953 757.75C166.62 784.182 170.401 787.958 196.838 792.63C170.401 797.297 166.62 801.078 161.953 827.51C157.281 801.078 153.5 797.297 127.068 792.63C153.5 787.958 157.281 784.182 161.953 757.75Z" fill="#BBBEA0"/>
<path d="M269.208 1029.28C272.484 1047.78 275.125 1050.42 293.63 1053.69C275.125 1056.96 272.479 1059.6 269.208 1078.11C265.937 1059.61 263.297 1056.96 244.791 1053.69C263.297 1050.42 265.937 1047.78 269.208 1029.28Z" fill="#BBBEA0"/>
<path d="M126.198 879.974C130.167 902.438 133.38 905.656 155.854 909.62C133.38 913.583 130.167 916.802 126.198 939.271C122.234 916.802 119.015 913.583 96.5467 909.62C119.015 905.656 122.234 902.438 126.198 879.974Z" fill="#ECC889"/>
</g>
<defs>
<clipPath id="clip0_156_2478">
<rect width="1440" height="2560" fill="white" transform="matrix(0 1 -1 0 2560 0)"/>
</clipPath>
</defs>
</svg>
