<svg xmlns="http://www.w3.org/2000/svg" xmlns:xlink="http://www.w3.org/1999/xlink" width="1440" zoomAndPan="magnify" viewBox="0 0 1080 1919.999921" height="2560" preserveAspectRatio="xMidYMid meet" version="1.0"><defs><g/></defs><g fill="#ffffff" fill-opacity="0.6706"><g transform="translate(232.31341, 633.689933)"><g><path d="M 20.234375 -15.640625 L 16.8125 -13.671875 L 13.09375 -12.328125 L 11.28125 -11.5625 L 9.328125 -11.0625 L 7.40625 -11.296875 L 3.515625 -10.8125 L 1.65625 -11.109375 L -0.140625 -11.21875 L -3.796875 -12.765625 L -5.3125 -13.734375 L -6.8125 -14.953125 L -8.265625 -16.234375 L -8.953125 -18.25 L -8.109375 -19.90625 L -2.71875 -24.890625 L -1.140625 -25.8125 L 0.0625 -27.0625 L 2 -27.671875 L 6.59375 -27.046875 L 8.5 -27.265625 L 10.296875 -27.640625 L 14.328125 -30.359375 L 15.46875 -31.65625 L 17.625 -33.703125 L 19.1875 -36.84375 L 19.234375 -38.75 L 18.3125 -41.0625 L 16.34375 -42.515625 L 14.65625 -42.609375 L 11.015625 -41.671875 L -1.578125 -33.484375 L -4.9375 -32.171875 L -12.140625 -30.765625 L -17.640625 -31.875 L -20.9375 -33.484375 L -23.859375 -35.984375 L -25.828125 -38.1875 L -28.578125 -41.96875 L -30.59375 -47.0625 L -30.875 -52.625 L -29.359375 -57.9375 L -28.078125 -61.46875 L -26.03125 -64.671875 L -24.90625 -65.96875 L -23.5 -67.25 L -22.234375 -69.03125 L -16.484375 -73.546875 L -13.140625 -75.328125 L -7.890625 -77.3125 L -0.28125 -77.953125 L 3.140625 -77.078125 L 8.34375 -74.984375 L 9.640625 -73.71875 L 11.078125 -72.5625 L 11.53125 -70.84375 L 10.984375 -68.65625 L 9.546875 -67.734375 L 8.078125 -66.515625 L 6 -65.03125 L 2.78125 -61.875 L 0.390625 -61.5 L -1.90625 -62.046875 L -4 -62.046875 L -6.046875 -61.828125 L -7.671875 -61.109375 L -10.25 -59.453125 L -12.53125 -57.453125 L -13.609375 -56.0625 L -14.234375 -54.4375 L -14.65625 -52.71875 L -14.765625 -51.046875 L -13.484375 -48.765625 L -11.375 -46.8125 L -9.421875 -46.703125 L -5.640625 -47.625 L -1.09375 -50.03125 L 1.03125 -51.78125 L 2.796875 -52.78125 L 4.328125 -53.90625 L 5.984375 -54.890625 L 13.15625 -57.859375 L 15.109375 -58.15625 L 16.765625 -58.53125 L 19.0625 -58.46875 L 22.796875 -57.84375 L 24.5625 -57.328125 L 29.171875 -53.984375 L 31.265625 -51.78125 L 33.859375 -47.75 L 34.4375 -46.140625 L 35.09375 -44.46875 L 35.625 -42.1875 L 35.734375 -40.5625 L 35.421875 -36.625 L 32.9375 -29.484375 L 32.09375 -27.671875 L 30.890625 -26.4375 L 29.921875 -24.640625 L 28.625 -23.21875 L 27.46875 -21.640625 L 26.140625 -20.265625 Z M 20.234375 -15.640625 "/></g></g></g><g fill="#ffffff" fill-opacity="0.6706"><g transform="translate(274.825587, 597.182384)"><g><path d="M 4.5625 -6 L 3.796875 -7.640625 L -3.546875 -18.96875 L -4.15625 -20.703125 L -26.203125 -56.34375 L -27.09375 -58.140625 L -27.15625 -60.3125 L -26.09375 -62.1875 L -23.34375 -62.984375 L -19.96875 -62.71875 L -17.03125 -61.921875 L -15.453125 -61.328125 L -13.671875 -60.96875 L -12.03125 -60.296875 L -10.296875 -59.8125 L -8.171875 -59.421875 L -4.75 -58.1875 L 4.375 -55.828125 L 6.140625 -55.125 L 8.078125 -54.859375 L 9.875 -54.09375 L 11.578125 -53.671875 L 13.34375 -54.0625 L 14.765625 -55.71875 L 19.03125 -75.78125 L 19.03125 -77.4375 L 20.71875 -85.03125 L 21.203125 -88.4375 L 22.546875 -90.8125 L 24.53125 -93.03125 L 26.75 -93.046875 L 28.578125 -92.046875 L 29.53125 -90.296875 L 30.546875 -89.015625 L 31.40625 -87.21875 L 45.65625 -64.390625 L 46.28125 -62.796875 L 47.453125 -61.265625 L 48.3125 -59.46875 L 49.390625 -57.890625 L 50.140625 -56.125 L 52.21875 -53.0625 L 53 -51.421875 L 59.265625 -41.875 L 60 -40.125 L 60.140625 -37.859375 L 59.1875 -35.953125 L 49.40625 -30.09375 L 47.234375 -29.671875 L 45.375 -30.859375 L 38.796875 -42.203125 L 36.734375 -45.0625 L 35.8125 -46.734375 L 34.859375 -48.140625 L 34.140625 -49.828125 L 32.921875 -51.3125 L 31.6875 -51.890625 L 30.828125 -51.140625 L 30.359375 -49.296875 L 30.15625 -47.28125 L 27.53125 -36.25 L 26.734375 -34.421875 L 24.875 -33.28125 L 20.875 -33.84375 L 18.96875 -34.59375 L 11.8125 -36.109375 L 8.25 -37.390625 L 6.84375 -36.984375 L 6.796875 -35.390625 L 10 -30.890625 L 16.421875 -19.78125 L 17.703125 -18.234375 L 18.8125 -16.578125 L 19.609375 -14.9375 L 19.5 -13.09375 L 17.5 -10.875 L 8.6875 -5.296875 L 6.1875 -5 Z M 4.5625 -6 "/></g></g></g><g fill="#ffffff" fill-opacity="0.6706"><g transform="translate(338.460465, 558.444628)"><g><path d="M 0.15625 -2.828125 L -0.328125 -6.96875 L -0.265625 -9.046875 L 0.21875 -10.890625 L 0.09375 -18.34375 L 0.640625 -23.921875 L 0.53125 -25.9375 L 0.734375 -27.671875 L 0.5 -29.734375 L 0.765625 -32.515625 L 0.703125 -34.453125 L 1.0625 -37.28125 L 1.140625 -41.015625 L 1.453125 -43 L 1.28125 -44.65625 L 1.59375 -57.75 L 1.90625 -59.75 L 2.390625 -69.203125 L 2.265625 -71.015625 L 3.265625 -73.28125 L 5.71875 -75.328125 L 9.03125 -75.78125 L 11.296875 -74.765625 L 12.5 -73.3125 L 13.84375 -72.328125 L 16.640625 -69.578125 L 19.734375 -67.0625 L 22.328125 -64.546875 L 23.359375 -63.328125 L 26.3125 -60.65625 L 27.5625 -59.203125 L 30.578125 -56.84375 L 31.71875 -55.375 L 33.203125 -54.234375 L 34.53125 -53.046875 L 36.140625 -51.875 L 37.40625 -50.328125 L 38.734375 -49.34375 L 40.09375 -47.84375 L 41.484375 -46.6875 L 42.921875 -45.21875 L 44.46875 -44.21875 L 47.0625 -41.484375 L 48.546875 -40.375 L 49.859375 -38.9375 L 52.671875 -36.40625 L 53.875 -34.96875 L 55.296875 -34.015625 L 56.5625 -32.46875 L 58.3125 -31.453125 L 59.59375 -30.140625 L 61.03125 -28.15625 L 61.4375 -26.15625 L 60.09375 -24.984375 L 54.734375 -22.5625 L 51.546875 -21.546875 L 50.03125 -20.703125 L 47.390625 -20.640625 L 45.3125 -21.40625 L 43.6875 -22.59375 L 42.609375 -24 L 40.171875 -24.625 L 36.890625 -24.390625 L 32.828125 -22.5 L 30.921875 -21.90625 L 29.34375 -21.25 L 27.421875 -20.15625 L 25.484375 -19.640625 L 20.609375 -17.515625 L 18.765625 -16.96875 L 17.03125 -15.203125 L 16.234375 -12.921875 L 15.96875 -9.3125 L 15.046875 -7.09375 L 13.40625 -5.375 L 11.015625 -4.6875 L 3.296875 -1.484375 L 1.359375 -1.171875 Z M 19.234375 -33.421875 L 26.046875 -36.34375 L 27.234375 -37.65625 L 26.765625 -39.3125 L 25.484375 -40.640625 L 23.890625 -42.046875 L 22.9375 -43.28125 L 21.359375 -44.390625 L 18.796875 -47.328125 L 17.453125 -47.578125 L 16.671875 -46.25 L 16.484375 -44.5 L 16.28125 -35.0625 L 17.28125 -33.40625 Z M 19.234375 -33.421875 "/></g></g></g><g fill="#ffffff" fill-opacity="0.6706"><g transform="translate(397.931247, 533.49246)"><g><path d="M 6.3125 -4.796875 L 4.15625 -11.890625 L 3.84375 -13.859375 L 2.09375 -19.109375 L 1.375 -22.9375 L 0.578125 -24.890625 L -0.234375 -28.40625 L -0.5625 -30.390625 L -1.765625 -34.984375 L -2.71875 -37.578125 L -9.171875 -63.390625 L -8.921875 -65.5 L -7.40625 -66.78125 L -5.359375 -67.21875 L -3.6875 -67.953125 L 0.1875 -68.578125 L 1.84375 -69.296875 L 7.40625 -70.5625 L 8.921875 -71.15625 L 11 -71.484375 L 12.796875 -72.15625 L 14.84375 -72.59375 L 17.484375 -73.375 L 19.828125 -73.796875 L 27.84375 -74.234375 L 31.5 -73.40625 L 37.015625 -71.109375 L 38.203125 -69.953125 L 39.84375 -68.921875 L 43.65625 -64.5 L 44.59375 -62.78125 L 45.328125 -61.109375 L 46.234375 -59.484375 L 48.03125 -52.1875 L 47.9375 -48.4375 L 47.703125 -46.703125 L 47.125 -44.78125 L 46.921875 -42.875 L 46.234375 -41.03125 L 44.3125 -37.859375 L 43.8125 -35.671875 L 44.671875 -33.546875 L 48.671875 -29.484375 L 50.234375 -28.3125 L 51.59375 -26.90625 L 53.125 -25.5625 L 54.359375 -24.1875 L 58.484375 -20.453125 L 60.265625 -18.453125 L 60.40625 -16.453125 L 58.59375 -15.484375 L 56.625 -14.765625 L 52.953125 -13.8125 L 51.0625 -13.515625 L 49.09375 -12.796875 L 45.734375 -12.125 L 43.296875 -12.078125 L 41.015625 -13.25 L 39.53125 -14.4375 L 38.296875 -15.78125 L 36.640625 -17.21875 L 32.875 -21.140625 L 31.765625 -22.71875 L 28.5625 -25.3125 L 26.671875 -26.5 L 24.171875 -26.625 L 22.546875 -26.09375 L 20.890625 -25.65625 L 19.296875 -24.28125 L 18.9375 -22.21875 L 20.609375 -16.578125 L 21.375 -12.546875 L 22.234375 -10.703125 L 22.5625 -8.71875 L 22.390625 -6.828125 L 19.765625 -5.15625 L 17.015625 -4.4375 L 15.03125 -4.125 L 11.34375 -2.859375 L 9.5625 -2.5 L 7.484375 -2.9375 Z M 17 -40.5625 L 19.015625 -41.09375 L 20.9375 -41.296875 L 27.9375 -43.8125 L 29.15625 -44.796875 L 29.96875 -46.203125 L 30.578125 -48.046875 L 30.828125 -50.0625 L 30.453125 -52.609375 L 29.578125 -55.234375 L 28.546875 -56.546875 L 27.265625 -57.671875 L 23.96875 -58.6875 L 19.578125 -58.125 L 14.515625 -56.90625 L 13.0625 -56.421875 L 11.46875 -55.03125 L 10.84375 -52.90625 L 13.796875 -42.6875 L 15.234375 -40.984375 Z M 17 -40.5625 "/></g></g></g><g fill="#ffffff" fill-opacity="0.6706"><g transform="translate(457.80924, 518.024697)"><g><path d="M 17.6875 -5.3125 L 16.609375 -12.65625 L 16.546875 -14.5625 L 15.5 -20.28125 L 15.328125 -22.265625 L 14.984375 -24.140625 L 15 -27.015625 L 14.34375 -29.703125 L 13.84375 -33.453125 L 13.78125 -35.375 L 13.359375 -37.140625 L 13.265625 -40.109375 L 11.578125 -50.421875 L 10.390625 -52.078125 L 8.5625 -52.890625 L 0.171875 -51.859375 L -2.234375 -51.265625 L -4.234375 -51.953125 L -5.5625 -53.90625 L -6.71875 -63.3125 L -6.015625 -65.3125 L -4.078125 -66.546875 L 24 -70.109375 L 26.140625 -70.671875 L 28.015625 -70.921875 L 29.921875 -70.984375 L 31.796875 -71.234375 L 33.84375 -71.796875 L 35.640625 -72.03125 L 37.171875 -72.046875 L 39.40625 -72.53125 L 41.421875 -71.828125 L 42.59375 -70.078125 L 43.4375 -62.34375 L 43.890625 -60.390625 L 43.21875 -58.375 L 41.15625 -57.234375 L 35.953125 -56.640625 L 34.296875 -56.21875 L 32.390625 -56.0625 L 30.8125 -55.765625 L 28.84375 -54.640625 L 28.328125 -52.84375 L 28.78125 -50.796875 L 28.734375 -48.890625 L 31.625 -30.203125 L 31.875 -26.1875 L 32.28125 -24.53125 L 32.875 -18.75 L 32.828125 -16.734375 L 33.34375 -15.171875 L 33.9375 -11.421875 L 34.03125 -9.234375 L 34.375 -7.4375 L 33.875 -5.46875 L 32.078125 -4.46875 L 26.234375 -3.6875 L 24.484375 -3.265625 L 22.5625 -3.203125 L 20.8125 -2.78125 L 18.703125 -3.453125 Z M 17.6875 -5.3125 "/></g></g></g><g fill="#ffffff" fill-opacity="0.6706"><g transform="translate(507.846141, 511.805375)"><g/></g></g><g fill="#ffffff" fill-opacity="0.6706"><g transform="translate(530.573015, 509.661819)"><g><path d="M 7.25 -2.65625 L 7.125 -4.46875 L 8.140625 -25.265625 L 7.984375 -28.125 L 9.078125 -46.234375 L 8.953125 -50.21875 L 9.375 -55.8125 L 9.34375 -57.53125 L 9.515625 -59.515625 L 9.390625 -61.234375 L 9.484375 -63.328125 L 10.515625 -65.28125 L 12.609375 -66.15625 L 24.109375 -65.5 L 25.84375 -65.8125 L 29.53125 -65.1875 L 31.234375 -65.5 L 41 -64.828125 L 44.671875 -63.8125 L 46.265625 -63.1875 L 48.03125 -62.265625 L 49.625 -61.25 L 50.890625 -60.140625 L 52.265625 -59.140625 L 53.640625 -57.75 L 56.609375 -53.265625 L 57.1875 -51.234375 L 57.8125 -47.78125 L 57.875 -44.859375 L 57.65625 -41.625 L 56.375 -38.25 L 54.4375 -34.609375 L 53.6875 -32.828125 L 54.5625 -30.625 L 56.015625 -29.21875 L 57.203125 -27.75 L 58.765625 -23.796875 L 59.671875 -20.34375 L 59.15625 -12.65625 L 58.34375 -10.875 L 57.6875 -9.109375 L 56.65625 -7.25 L 53.953125 -3.84375 L 50.046875 -0.9375 L 48.3125 -0.171875 L 42.921875 1.15625 L 41.21875 1.359375 L 31.40625 1.4375 L 29.515625 1.09375 L 15.75 0.71875 L 12.90625 0.328125 L 9.765625 0.484375 L 8.03125 -0.734375 Z M 28.203125 -39.46875 L 35.515625 -39.453125 L 38.3125 -40.296875 L 39.78125 -41.390625 L 40.5625 -44.109375 L 40.375 -46.96875 L 39.6875 -48.515625 L 38.1875 -49.328125 L 28.453125 -50.375 L 26.609375 -49.3125 L 25.359375 -46.625 L 25.3125 -43.390625 L 26.265625 -40.6875 Z M 26.90625 -14.140625 L 34.1875 -13.65625 L 39.453125 -13.921875 L 41.09375 -14.90625 L 42.203125 -16.1875 L 42.78125 -18.921875 L 42.3125 -21.3125 L 41.421875 -23.078125 L 39.84375 -23.796875 L 30.9375 -25.015625 L 28.96875 -24.90625 L 27.15625 -25.25 L 25.5 -24.078125 L 24.578125 -22.515625 L 24.0625 -16.8125 L 25.234375 -14.859375 Z M 26.90625 -14.140625 "/></g></g></g><g fill="#ffffff" fill-opacity="0.6706"><g transform="translate(588.984862, 511.62034)"><g><path d="M 27.484375 5.546875 L 25.78125 4.78125 L 23.734375 4.328125 L 22.453125 3.34375 L 20.4375 2.296875 L 18.78125 1.234375 L 17.578125 -0.125 L 14.71875 -2.546875 L 13.71875 -3.96875 L 11.71875 -7.5 L 10.40625 -11.015625 L 10.15625 -12.890625 L 10.171875 -14.734375 L 9.9375 -16.6875 L 10.28125 -18.65625 L 10.484375 -21.40625 L 11.75 -28.140625 L 12.109375 -31.921875 L 12.625 -33.6875 L 12.84375 -35.5625 L 13.34375 -37.3125 L 13.40625 -39.421875 L 14.109375 -41.125 L 14.59375 -46.828125 L 15.515625 -50.34375 L 15.8125 -54.328125 L 16.5625 -55.84375 L 17.546875 -61.46875 L 18.703125 -63.1875 L 20.75 -63.890625 L 30.5625 -62.09375 L 32.65625 -60.84375 L 33.375 -58.90625 L 33.03125 -56.9375 L 32.09375 -54.203125 L 31.78125 -52.421875 L 31.59375 -49.671875 L 30.28125 -42.171875 L 29.8125 -40.515625 L 28.890625 -34.703125 L 28.828125 -32.78125 L 26.15625 -16.28125 L 26.390625 -14.21875 L 27.28125 -12.703125 L 28.46875 -11.25 L 30.359375 -9.875 L 31.953125 -9.09375 L 35.015625 -8.375 L 37.5625 -8.109375 L 41.53125 -8.6875 L 43.25 -9.828125 L 44.328125 -11.015625 L 45.5 -12.625 L 46.375 -15.5625 L 47.109375 -20.34375 L 47.625 -22.1875 L 48.125 -25.5625 L 48.671875 -27.59375 L 48.578125 -29.34375 L 50.15625 -36.703125 L 50.203125 -38.703125 L 50.734375 -40.640625 L 51.28125 -44.296875 L 51.796875 -46.15625 L 53.296875 -55.34375 L 54.59375 -57.234375 L 56.796875 -57.71875 L 65.578125 -56.09375 L 68.4375 -54.71875 L 68.828125 -52.546875 L 68.828125 -50.890625 L 67.421875 -43.34375 L 67.375 -41.40625 L 66.78125 -39.6875 L 66.515625 -37.609375 L 65.828125 -34.734375 L 65.46875 -32.09375 L 64.9375 -30.15625 L 64.71875 -28.375 L 64.765625 -26.4375 L 64.484375 -24.75 L 63.765625 -22.84375 L 62.71875 -15.234375 L 60.421875 -5.890625 L 59.453125 -4.21875 L 58.25 -2.796875 L 57.359375 -1.015625 L 55.890625 0.171875 L 54.578125 1.6875 L 49.71875 4.703125 L 48.03125 5.46875 L 46.21875 5.90625 L 44.5625 6.59375 L 42.59375 6.734375 L 40.515625 7.140625 L 36.625 7.328125 L 31.890625 6.703125 Z M 27.484375 5.546875 "/></g></g></g><g fill="#ffffff" fill-opacity="0.6706"><g transform="translate(649.250868, 521.662709)"><g><path d="M 7.6875 -0.609375 L 8.984375 -4.015625 L 11.015625 -11.328125 L 11.796875 -13.09375 L 13.921875 -20.359375 L 15.34375 -23.8125 L 15.671875 -25.796875 L 16.5 -27.421875 L 17.46875 -31.40625 L 18.859375 -34.765625 L 20.828125 -42.09375 L 21.671875 -43.84375 L 21.984375 -45.71875 L 22.890625 -47.625 L 23.8125 -51.109375 L 24.484375 -52.890625 L 24.890625 -54.765625 L 26.09375 -58.484375 L 27.984375 -59.75 L 29.921875 -60.234375 L 31.796875 -59.53125 L 33.46875 -59.09375 L 35.21875 -58.328125 L 41.046875 -56.65625 L 42.8125 -55.890625 L 55.625 -51.6875 L 59.109375 -49.75 L 63.546875 -46.53125 L 65.078125 -45.046875 L 67.75 -41.890625 L 69.5 -38.640625 L 70.65625 -36.96875 L 72.109375 -33.40625 L 72.328125 -31.640625 L 73.4375 -27.890625 L 73.625 -23.828125 L 73.546875 -22.0625 L 73.109375 -20.109375 L 72.828125 -14.5 L 70.59375 -8.84375 L 70.1875 -7.28125 L 69.125 -5.515625 L 68.25 -3.71875 L 67.09375 -2.28125 L 66.15625 -0.59375 L 64.6875 0.828125 L 63.703125 2.421875 L 59.4375 6.03125 L 54.46875 9.03125 L 45.125 11.71875 L 39.375 11.65625 L 33.3125 10.59375 L 17 5.46875 L 15 5.125 L 13.203125 4.546875 L 11.390625 3.65625 L 9.3125 3 L 8.140625 1.71875 Z M 30.640625 -6.21875 L 38.265625 -4.171875 L 41.8125 -4.03125 L 43.90625 -4.359375 L 45.640625 -4.796875 L 47.203125 -5.875 L 48.78125 -6.765625 L 50.46875 -8.015625 L 52.890625 -10.84375 L 53.96875 -12.390625 L 55.84375 -16.6875 L 56.46875 -19.5625 L 57.109375 -25.265625 L 56.40625 -27.078125 L 55.953125 -29.109375 L 54.5 -32.375 L 52.078125 -35.359375 L 48.8125 -37.609375 L 46.140625 -38.65625 L 44.21875 -39.171875 L 42.359375 -39.875 L 39.40625 -39.71875 L 37.796875 -38.453125 L 30.328125 -15.203125 L 29.484375 -13.46875 L 29.296875 -11.734375 L 28.546875 -9.984375 L 28.71875 -7.734375 Z M 30.640625 -6.21875 "/></g></g></g><g fill="#ffffff" fill-opacity="0.6706"><g transform="translate(710.695562, 540.909124)"><g><path d="M 30.6875 16.375 L 28.984375 15.328125 L 24.71875 11.953125 L 20.78125 7.90625 L 19.625 6.375 L 15.984375 0.015625 L 14.796875 -3.625 L 13.625 -8.96875 L 13.484375 -11.046875 L 14 -16.625 L 15.78125 -23.890625 L 16.578125 -25.734375 L 17.921875 -28.03125 L 19.84375 -32.375 L 22.625 -35.65625 L 23.46875 -37.15625 L 29.296875 -42.328125 L 31.015625 -43.484375 L 32.890625 -44.078125 L 34.421875 -45.015625 L 36.234375 -45.90625 L 39.984375 -47.03125 L 45.65625 -47.828125 L 47.5625 -47.859375 L 55.1875 -46.96875 L 60.8125 -45.265625 L 69.03125 -40.671875 L 70.65625 -39.234375 L 72.234375 -38.15625 L 73.3125 -36.875 L 74.921875 -35.453125 L 78.953125 -29.015625 L 80.21875 -25.328125 L 81.015625 -21.546875 L 81.609375 -19.78125 L 81.234375 -12.125 L 79.71875 -10.546875 L 78.015625 -10.734375 L 76.3125 -11.359375 L 67.96875 -15.46875 L 66.515625 -17.25 L 65.296875 -19.53125 L 65.125 -21.3125 L 62.15625 -26.0625 L 60.75 -27.28125 L 56.578125 -29.984375 L 54.140625 -31.078125 L 50.265625 -31.609375 L 48.484375 -31.625 L 44.703125 -31.046875 L 41.328125 -29.765625 L 38.484375 -27.234375 L 37.296875 -25.671875 L 34.859375 -23.078125 L 31.171875 -14.296875 L 30.984375 -12.390625 L 31.15625 -10.390625 L 31.125 -8.609375 L 31.359375 -6.703125 L 32.921875 -3.390625 L 35.15625 -0.265625 L 36.421875 1.078125 L 37.78125 2.1875 L 40.34375 3.65625 L 42.84375 4.78125 L 44.703125 5.359375 L 48.4375 5.9375 L 50.125 5.9375 L 53.765625 4.75 L 55.125 3.71875 L 55.5 2.109375 L 54.765625 0.59375 L 49.53125 -1.671875 L 48.078125 -2.609375 L 46.46875 -3.40625 L 45.21875 -4.96875 L 45.40625 -6.671875 L 45.875 -8.4375 L 49.203125 -14.75 L 50.75 -16 L 53.859375 -15.640625 L 75.25 -5.109375 L 77.34375 -3.125 L 77.53125 -0.921875 L 76.953125 0.90625 L 73.421875 7.21875 L 72.078125 8.671875 L 71.1875 10.25 L 68.28125 13.375 L 64.390625 16.328125 L 59.6875 18.984375 L 55.921875 20.421875 L 52.234375 20.8125 L 50.515625 21.25 L 42.859375 20.875 L 41.21875 20.59375 L 39.546875 19.890625 L 37.671875 19.390625 L 32.859375 17.546875 Z M 30.6875 16.375 "/></g></g></g><g fill="#ffffff" fill-opacity="0.6706"><g transform="translate(772.017169, 571.438752)"><g><path d="M 7.21875 1.515625 L 8.578125 0.125 L 9.71875 -1.390625 L 11.625 -4.59375 L 12.671875 -6.15625 L 13.71875 -8.09375 L 14.921875 -9.359375 L 15.828125 -10.90625 L 17.15625 -12.53125 L 18.015625 -14.34375 L 20.296875 -17.421875 L 22.109375 -20.65625 L 23.453125 -22.15625 L 32.890625 -36.3125 L 33.6875 -37.8125 L 34.953125 -39.390625 L 37.328125 -43.625 L 39.15625 -45.703125 L 41.125 -48.96875 L 43.078125 -50.171875 L 45.71875 -49.203125 L 56.234375 -42.515625 L 57.5625 -41.421875 L 60.6875 -39.4375 L 62.171875 -38.234375 L 65.75 -36.0625 L 67.171875 -34.78125 L 68.703125 -33.984375 L 74.96875 -29.6875 L 76.15625 -27.890625 L 75.890625 -25.78125 L 74.65625 -24.421875 L 73.421875 -22.734375 L 72.640625 -21.078125 L 70.625 -17.71875 L 68.828125 -16.90625 L 66.59375 -17.125 L 51.359375 -27.171875 L 48.4375 -28.09375 L 46.109375 -26.328125 L 44.640625 -23.78125 L 44.640625 -21.71875 L 45.40625 -19.953125 L 51.703125 -15.859375 L 53.40625 -14.484375 L 55.0625 -13.390625 L 56.75 -12.484375 L 59.875 -10.296875 L 60.609375 -8.53125 L 60.34375 -6.578125 L 59.4375 -4.875 L 55.109375 1.25 L 53.3125 2.21875 L 51.171875 2.046875 L 49.6875 1.171875 L 48.140625 -0.09375 L 45.90625 -1.34375 L 41.859375 -4.40625 L 40.1875 -5.28125 L 37.109375 -7.328125 L 35.09375 -7.421875 L 33.265625 -6.234375 L 30.609375 -2.421875 L 29.703125 0.5 L 30.734375 2.5625 L 32.5625 3.5625 L 34.203125 4.890625 L 35.859375 5.65625 L 46.171875 12.765625 L 48.03125 15.140625 L 48 17.421875 L 46.84375 18.796875 L 43.65625 23.75 L 42.484375 25.171875 L 40.796875 26.171875 L 38.59375 25.859375 L 36.984375 25.015625 L 32.375 21.484375 L 27.390625 18.5 L 26.125 17.3125 L 8.171875 5.5625 L 7.25 3.6875 Z M 7.21875 1.515625 "/></g></g></g><g fill="#ffffff" fill-opacity="0.6706"><g transform="translate(814.392844, 599.513407)"><g><path d="M 15.84375 9.484375 L 20.5625 3.75 L 21.921875 2.421875 L 25.421875 -2.203125 L 26.796875 -3.671875 L 27.9375 -5.1875 L 30.0625 -7.125 L 31.625 -9.40625 L 34.0625 -12.3125 L 35.4375 -13.65625 L 36.453125 -15.15625 L 38.5625 -17.21875 L 45.078125 -25.40625 L 45.5 -27.390625 L 44.859375 -29.296875 L 38.453125 -34.796875 L 36.375 -36.171875 L 35.546875 -38.140625 L 36.09375 -40.421875 L 42.265625 -47.625 L 44.21875 -48.46875 L 46.4375 -47.828125 L 67.984375 -29.46875 L 69.84375 -28.28125 L 71.28125 -27.0625 L 72.625 -25.703125 L 74.0625 -24.484375 L 75.859375 -23.328125 L 77.234375 -22.171875 L 78.28125 -21.046875 L 80.140625 -19.71875 L 81 -17.78125 L 80.5 -15.71875 L 75.34375 -9.875 L 74.203125 -8.234375 L 72.25 -7.390625 L 70.03125 -8.140625 L 66.078125 -11.578125 L 64.65625 -12.53125 L 63.25 -13.828125 L 61.96875 -14.796875 L 59.8125 -15.484375 L 58.140625 -14.65625 L 56.9375 -12.9375 L 55.484375 -11.671875 L 43.625 3.046875 L 40.828125 5.921875 L 39.890625 7.34375 L 36 11.65625 L 34.5 13 L 33.671875 14.421875 L 31.3125 17.390625 L 29.75 18.9375 L 28.65625 20.390625 L 26.859375 21.34375 L 24.921875 20.703125 L 20.40625 16.921875 L 18.90625 15.90625 L 17.578125 14.53125 L 16.078125 13.515625 L 15.15625 11.5 Z M 15.84375 9.484375 "/></g></g></g><g fill="#282f66" fill-opacity="1"><g transform="translate(224.062811, 625.996158)"><g><path d="M 20.234375 -15.640625 L 16.8125 -13.671875 L 13.09375 -12.328125 L 11.28125 -11.5625 L 9.328125 -11.0625 L 7.40625 -11.296875 L 3.515625 -10.8125 L 1.65625 -11.109375 L -0.140625 -11.21875 L -3.796875 -12.765625 L -5.3125 -13.734375 L -6.8125 -14.953125 L -8.265625 -16.234375 L -8.953125 -18.25 L -8.109375 -19.90625 L -2.71875 -24.890625 L -1.140625 -25.8125 L 0.0625 -27.0625 L 2 -27.671875 L 6.59375 -27.046875 L 8.5 -27.265625 L 10.296875 -27.640625 L 14.328125 -30.359375 L 15.46875 -31.65625 L 17.625 -33.703125 L 19.1875 -36.84375 L 19.234375 -38.75 L 18.3125 -41.0625 L 16.34375 -42.515625 L 14.65625 -42.609375 L 11.015625 -41.671875 L -1.578125 -33.484375 L -4.9375 -32.171875 L -12.140625 -30.765625 L -17.640625 -31.875 L -20.9375 -33.484375 L -23.859375 -35.984375 L -25.828125 -38.1875 L -28.578125 -41.96875 L -30.59375 -47.0625 L -30.875 -52.625 L -29.359375 -57.9375 L -28.078125 -61.46875 L -26.03125 -64.671875 L -24.90625 -65.96875 L -23.5 -67.25 L -22.234375 -69.03125 L -16.484375 -73.546875 L -13.140625 -75.328125 L -7.890625 -77.3125 L -0.28125 -77.953125 L 3.140625 -77.078125 L 8.34375 -74.984375 L 9.640625 -73.71875 L 11.078125 -72.5625 L 11.53125 -70.84375 L 10.984375 -68.65625 L 9.546875 -67.734375 L 8.078125 -66.515625 L 6 -65.03125 L 2.78125 -61.875 L 0.390625 -61.5 L -1.90625 -62.046875 L -4 -62.046875 L -6.046875 -61.828125 L -7.671875 -61.109375 L -10.25 -59.453125 L -12.53125 -57.453125 L -13.609375 -56.0625 L -14.234375 -54.4375 L -14.65625 -52.71875 L -14.765625 -51.046875 L -13.484375 -48.765625 L -11.375 -46.8125 L -9.421875 -46.703125 L -5.640625 -47.625 L -1.09375 -50.03125 L 1.03125 -51.78125 L 2.796875 -52.78125 L 4.328125 -53.90625 L 5.984375 -54.890625 L 13.15625 -57.859375 L 15.109375 -58.15625 L 16.765625 -58.53125 L 19.0625 -58.46875 L 22.796875 -57.84375 L 24.5625 -57.328125 L 29.171875 -53.984375 L 31.265625 -51.78125 L 33.859375 -47.75 L 34.4375 -46.140625 L 35.09375 -44.46875 L 35.625 -42.1875 L 35.734375 -40.5625 L 35.421875 -36.625 L 32.9375 -29.484375 L 32.09375 -27.671875 L 30.890625 -26.4375 L 29.921875 -24.640625 L 28.625 -23.21875 L 27.46875 -21.640625 L 26.140625 -20.265625 Z M 20.234375 -15.640625 "/></g></g></g><g fill="#282f66" fill-opacity="1"><g transform="translate(266.575003, 589.488561)"><g><path d="M 4.5625 -6 L 3.796875 -7.640625 L -3.546875 -18.96875 L -4.15625 -20.703125 L -26.203125 -56.34375 L -27.09375 -58.140625 L -27.15625 -60.3125 L -26.09375 -62.1875 L -23.34375 -62.984375 L -19.96875 -62.71875 L -17.03125 -61.921875 L -15.453125 -61.328125 L -13.671875 -60.96875 L -12.03125 -60.296875 L -10.296875 -59.8125 L -8.171875 -59.421875 L -4.75 -58.1875 L 4.375 -55.828125 L 6.140625 -55.125 L 8.078125 -54.859375 L 9.875 -54.09375 L 11.578125 -53.671875 L 13.34375 -54.0625 L 14.765625 -55.71875 L 19.03125 -75.78125 L 19.03125 -77.4375 L 20.71875 -85.03125 L 21.203125 -88.4375 L 22.546875 -90.8125 L 24.53125 -93.03125 L 26.75 -93.046875 L 28.578125 -92.046875 L 29.53125 -90.296875 L 30.546875 -89.015625 L 31.40625 -87.21875 L 45.65625 -64.390625 L 46.28125 -62.796875 L 47.453125 -61.265625 L 48.3125 -59.46875 L 49.390625 -57.890625 L 50.140625 -56.125 L 52.21875 -53.0625 L 53 -51.421875 L 59.265625 -41.875 L 60 -40.125 L 60.140625 -37.859375 L 59.1875 -35.953125 L 49.40625 -30.09375 L 47.234375 -29.671875 L 45.375 -30.859375 L 38.796875 -42.203125 L 36.734375 -45.0625 L 35.8125 -46.734375 L 34.859375 -48.140625 L 34.140625 -49.828125 L 32.921875 -51.3125 L 31.6875 -51.890625 L 30.828125 -51.140625 L 30.359375 -49.296875 L 30.15625 -47.28125 L 27.53125 -36.25 L 26.734375 -34.421875 L 24.875 -33.28125 L 20.875 -33.84375 L 18.96875 -34.59375 L 11.8125 -36.109375 L 8.25 -37.390625 L 6.84375 -36.984375 L 6.796875 -35.390625 L 10 -30.890625 L 16.421875 -19.78125 L 17.703125 -18.234375 L 18.8125 -16.578125 L 19.609375 -14.9375 L 19.5 -13.09375 L 17.5 -10.875 L 8.6875 -5.296875 L 6.1875 -5 Z M 4.5625 -6 "/></g></g></g><g fill="#282f66" fill-opacity="1"><g transform="translate(330.209849, 550.750804)"><g><path d="M 0.15625 -2.828125 L -0.328125 -6.96875 L -0.265625 -9.046875 L 0.21875 -10.890625 L 0.09375 -18.34375 L 0.640625 -23.921875 L 0.53125 -25.9375 L 0.734375 -27.671875 L 0.5 -29.734375 L 0.765625 -32.515625 L 0.703125 -34.453125 L 1.0625 -37.28125 L 1.140625 -41.015625 L 1.453125 -43 L 1.28125 -44.65625 L 1.59375 -57.75 L 1.90625 -59.75 L 2.390625 -69.203125 L 2.265625 -71.015625 L 3.265625 -73.28125 L 5.71875 -75.328125 L 9.03125 -75.78125 L 11.296875 -74.765625 L 12.5 -73.3125 L 13.84375 -72.328125 L 16.640625 -69.578125 L 19.734375 -67.0625 L 22.328125 -64.546875 L 23.359375 -63.328125 L 26.3125 -60.65625 L 27.5625 -59.203125 L 30.578125 -56.84375 L 31.71875 -55.375 L 33.203125 -54.234375 L 34.53125 -53.046875 L 36.140625 -51.875 L 37.40625 -50.328125 L 38.734375 -49.34375 L 40.09375 -47.84375 L 41.484375 -46.6875 L 42.921875 -45.21875 L 44.46875 -44.21875 L 47.0625 -41.484375 L 48.546875 -40.375 L 49.859375 -38.9375 L 52.671875 -36.40625 L 53.875 -34.96875 L 55.296875 -34.015625 L 56.5625 -32.46875 L 58.3125 -31.453125 L 59.59375 -30.140625 L 61.03125 -28.15625 L 61.4375 -26.15625 L 60.09375 -24.984375 L 54.734375 -22.5625 L 51.546875 -21.546875 L 50.03125 -20.703125 L 47.390625 -20.640625 L 45.3125 -21.40625 L 43.6875 -22.59375 L 42.609375 -24 L 40.171875 -24.625 L 36.890625 -24.390625 L 32.828125 -22.5 L 30.921875 -21.90625 L 29.34375 -21.25 L 27.421875 -20.15625 L 25.484375 -19.640625 L 20.609375 -17.515625 L 18.765625 -16.96875 L 17.03125 -15.203125 L 16.234375 -12.921875 L 15.96875 -9.3125 L 15.046875 -7.09375 L 13.40625 -5.375 L 11.015625 -4.6875 L 3.296875 -1.484375 L 1.359375 -1.171875 Z M 19.234375 -33.421875 L 26.046875 -36.34375 L 27.234375 -37.65625 L 26.765625 -39.3125 L 25.484375 -40.640625 L 23.890625 -42.046875 L 22.9375 -43.28125 L 21.359375 -44.390625 L 18.796875 -47.328125 L 17.453125 -47.578125 L 16.671875 -46.25 L 16.484375 -44.5 L 16.28125 -35.0625 L 17.28125 -33.40625 Z M 19.234375 -33.421875 "/></g></g></g><g fill="#282f66" fill-opacity="1"><g transform="translate(389.680631, 525.798661)"><g><path d="M 6.3125 -4.796875 L 4.15625 -11.890625 L 3.84375 -13.859375 L 2.09375 -19.109375 L 1.375 -22.9375 L 0.578125 -24.890625 L -0.234375 -28.40625 L -0.5625 -30.390625 L -1.765625 -34.984375 L -2.71875 -37.578125 L -9.171875 -63.390625 L -8.921875 -65.5 L -7.40625 -66.78125 L -5.359375 -67.21875 L -3.6875 -67.953125 L 0.1875 -68.578125 L 1.84375 -69.296875 L 7.40625 -70.5625 L 8.921875 -71.15625 L 11 -71.484375 L 12.796875 -72.15625 L 14.84375 -72.59375 L 17.484375 -73.375 L 19.828125 -73.796875 L 27.84375 -74.234375 L 31.5 -73.40625 L 37.015625 -71.109375 L 38.203125 -69.953125 L 39.84375 -68.921875 L 43.65625 -64.5 L 44.59375 -62.78125 L 45.328125 -61.109375 L 46.234375 -59.484375 L 48.03125 -52.1875 L 47.9375 -48.4375 L 47.703125 -46.703125 L 47.125 -44.78125 L 46.921875 -42.875 L 46.234375 -41.03125 L 44.3125 -37.859375 L 43.8125 -35.671875 L 44.671875 -33.546875 L 48.671875 -29.484375 L 50.234375 -28.3125 L 51.59375 -26.90625 L 53.125 -25.5625 L 54.359375 -24.1875 L 58.484375 -20.453125 L 60.265625 -18.453125 L 60.40625 -16.453125 L 58.59375 -15.484375 L 56.625 -14.765625 L 52.953125 -13.8125 L 51.0625 -13.515625 L 49.09375 -12.796875 L 45.734375 -12.125 L 43.296875 -12.078125 L 41.015625 -13.25 L 39.53125 -14.4375 L 38.296875 -15.78125 L 36.640625 -17.21875 L 32.875 -21.140625 L 31.765625 -22.71875 L 28.5625 -25.3125 L 26.671875 -26.5 L 24.171875 -26.625 L 22.546875 -26.09375 L 20.890625 -25.65625 L 19.296875 -24.28125 L 18.9375 -22.21875 L 20.609375 -16.578125 L 21.375 -12.546875 L 22.234375 -10.703125 L 22.5625 -8.71875 L 22.390625 -6.828125 L 19.765625 -5.15625 L 17.015625 -4.4375 L 15.03125 -4.125 L 11.34375 -2.859375 L 9.5625 -2.5 L 7.484375 -2.9375 Z M 17 -40.5625 L 19.015625 -41.09375 L 20.9375 -41.296875 L 27.9375 -43.8125 L 29.15625 -44.796875 L 29.96875 -46.203125 L 30.578125 -48.046875 L 30.828125 -50.0625 L 30.453125 -52.609375 L 29.578125 -55.234375 L 28.546875 -56.546875 L 27.265625 -57.671875 L 23.96875 -58.6875 L 19.578125 -58.125 L 14.515625 -56.90625 L 13.0625 -56.421875 L 11.46875 -55.03125 L 10.84375 -52.90625 L 13.796875 -42.6875 L 15.234375 -40.984375 Z M 17 -40.5625 "/></g></g></g><g fill="#282f66" fill-opacity="1"><g transform="translate(449.55864, 510.330874)"><g><path d="M 17.6875 -5.3125 L 16.609375 -12.65625 L 16.546875 -14.5625 L 15.5 -20.28125 L 15.328125 -22.265625 L 14.984375 -24.140625 L 15 -27.015625 L 14.34375 -29.703125 L 13.84375 -33.453125 L 13.78125 -35.375 L 13.359375 -37.140625 L 13.265625 -40.109375 L 11.578125 -50.421875 L 10.390625 -52.078125 L 8.5625 -52.890625 L 0.171875 -51.859375 L -2.234375 -51.265625 L -4.234375 -51.953125 L -5.5625 -53.90625 L -6.71875 -63.3125 L -6.015625 -65.3125 L -4.078125 -66.546875 L 24 -70.109375 L 26.140625 -70.671875 L 28.015625 -70.921875 L 29.921875 -70.984375 L 31.796875 -71.234375 L 33.84375 -71.796875 L 35.640625 -72.03125 L 37.171875 -72.046875 L 39.40625 -72.53125 L 41.421875 -71.828125 L 42.59375 -70.078125 L 43.4375 -62.34375 L 43.890625 -60.390625 L 43.21875 -58.375 L 41.15625 -57.234375 L 35.953125 -56.640625 L 34.296875 -56.21875 L 32.390625 -56.0625 L 30.8125 -55.765625 L 28.84375 -54.640625 L 28.328125 -52.84375 L 28.78125 -50.796875 L 28.734375 -48.890625 L 31.625 -30.203125 L 31.875 -26.1875 L 32.28125 -24.53125 L 32.875 -18.75 L 32.828125 -16.734375 L 33.34375 -15.171875 L 33.9375 -11.421875 L 34.03125 -9.234375 L 34.375 -7.4375 L 33.875 -5.46875 L 32.078125 -4.46875 L 26.234375 -3.6875 L 24.484375 -3.265625 L 22.5625 -3.203125 L 20.8125 -2.78125 L 18.703125 -3.453125 Z M 17.6875 -5.3125 "/></g></g></g><g fill="#282f66" fill-opacity="1"><g transform="translate(499.595566, 504.111552)"><g/></g></g><g fill="#282f66" fill-opacity="1"><g transform="translate(522.322415, 501.967996)"><g><path d="M 7.25 -2.65625 L 7.125 -4.46875 L 8.140625 -25.265625 L 7.984375 -28.125 L 9.078125 -46.234375 L 8.953125 -50.21875 L 9.375 -55.8125 L 9.34375 -57.53125 L 9.515625 -59.515625 L 9.390625 -61.234375 L 9.484375 -63.328125 L 10.515625 -65.28125 L 12.609375 -66.15625 L 24.109375 -65.5 L 25.84375 -65.8125 L 29.53125 -65.1875 L 31.234375 -65.5 L 41 -64.828125 L 44.671875 -63.8125 L 46.265625 -63.1875 L 48.03125 -62.265625 L 49.625 -61.25 L 50.890625 -60.140625 L 52.265625 -59.140625 L 53.640625 -57.75 L 56.609375 -53.265625 L 57.1875 -51.234375 L 57.8125 -47.78125 L 57.875 -44.859375 L 57.65625 -41.625 L 56.375 -38.25 L 54.4375 -34.609375 L 53.6875 -32.828125 L 54.5625 -30.625 L 56.015625 -29.21875 L 57.203125 -27.75 L 58.765625 -23.796875 L 59.671875 -20.34375 L 59.15625 -12.65625 L 58.34375 -10.875 L 57.6875 -9.109375 L 56.65625 -7.25 L 53.953125 -3.84375 L 50.046875 -0.9375 L 48.3125 -0.171875 L 42.921875 1.15625 L 41.21875 1.359375 L 31.40625 1.4375 L 29.515625 1.09375 L 15.75 0.71875 L 12.90625 0.328125 L 9.765625 0.484375 L 8.03125 -0.734375 Z M 28.203125 -39.46875 L 35.515625 -39.453125 L 38.3125 -40.296875 L 39.78125 -41.390625 L 40.5625 -44.109375 L 40.375 -46.96875 L 39.6875 -48.515625 L 38.1875 -49.328125 L 28.453125 -50.375 L 26.609375 -49.3125 L 25.359375 -46.625 L 25.3125 -43.390625 L 26.265625 -40.6875 Z M 26.90625 -14.140625 L 34.1875 -13.65625 L 39.453125 -13.921875 L 41.09375 -14.90625 L 42.203125 -16.1875 L 42.78125 -18.921875 L 42.3125 -21.3125 L 41.421875 -23.078125 L 39.84375 -23.796875 L 30.9375 -25.015625 L 28.96875 -24.90625 L 27.15625 -25.25 L 25.5 -24.078125 L 24.578125 -22.515625 L 24.0625 -16.8125 L 25.234375 -14.859375 Z M 26.90625 -14.140625 "/></g></g></g><g fill="#282f66" fill-opacity="1"><g transform="translate(580.734263, 503.926516)"><g><path d="M 27.484375 5.546875 L 25.78125 4.78125 L 23.734375 4.328125 L 22.453125 3.34375 L 20.4375 2.296875 L 18.78125 1.234375 L 17.578125 -0.125 L 14.71875 -2.546875 L 13.71875 -3.96875 L 11.71875 -7.5 L 10.40625 -11.015625 L 10.15625 -12.890625 L 10.171875 -14.734375 L 9.9375 -16.6875 L 10.28125 -18.65625 L 10.484375 -21.40625 L 11.75 -28.140625 L 12.109375 -31.921875 L 12.625 -33.6875 L 12.84375 -35.5625 L 13.34375 -37.3125 L 13.40625 -39.421875 L 14.109375 -41.125 L 14.59375 -46.828125 L 15.515625 -50.34375 L 15.8125 -54.328125 L 16.5625 -55.84375 L 17.546875 -61.46875 L 18.703125 -63.1875 L 20.75 -63.890625 L 30.5625 -62.09375 L 32.65625 -60.84375 L 33.375 -58.90625 L 33.03125 -56.9375 L 32.09375 -54.203125 L 31.78125 -52.421875 L 31.59375 -49.671875 L 30.28125 -42.171875 L 29.8125 -40.515625 L 28.890625 -34.703125 L 28.828125 -32.78125 L 26.15625 -16.28125 L 26.390625 -14.21875 L 27.28125 -12.703125 L 28.46875 -11.25 L 30.359375 -9.875 L 31.953125 -9.09375 L 35.015625 -8.375 L 37.5625 -8.109375 L 41.53125 -8.6875 L 43.25 -9.828125 L 44.328125 -11.015625 L 45.5 -12.625 L 46.375 -15.5625 L 47.109375 -20.34375 L 47.625 -22.1875 L 48.125 -25.5625 L 48.671875 -27.59375 L 48.578125 -29.34375 L 50.15625 -36.703125 L 50.203125 -38.703125 L 50.734375 -40.640625 L 51.28125 -44.296875 L 51.796875 -46.15625 L 53.296875 -55.34375 L 54.59375 -57.234375 L 56.796875 -57.71875 L 65.578125 -56.09375 L 68.4375 -54.71875 L 68.828125 -52.546875 L 68.828125 -50.890625 L 67.421875 -43.34375 L 67.375 -41.40625 L 66.78125 -39.6875 L 66.515625 -37.609375 L 65.828125 -34.734375 L 65.46875 -32.09375 L 64.9375 -30.15625 L 64.71875 -28.375 L 64.765625 -26.4375 L 64.484375 -24.75 L 63.765625 -22.84375 L 62.71875 -15.234375 L 60.421875 -5.890625 L 59.453125 -4.21875 L 58.25 -2.796875 L 57.359375 -1.015625 L 55.890625 0.171875 L 54.578125 1.6875 L 49.71875 4.703125 L 48.03125 5.46875 L 46.21875 5.90625 L 44.5625 6.59375 L 42.59375 6.734375 L 40.515625 7.140625 L 36.625 7.328125 L 31.890625 6.703125 Z M 27.484375 5.546875 "/></g></g></g><g fill="#282f66" fill-opacity="1"><g transform="translate(641.000293, 513.968861)"><g><path d="M 7.6875 -0.609375 L 8.984375 -4.015625 L 11.015625 -11.328125 L 11.796875 -13.09375 L 13.921875 -20.359375 L 15.34375 -23.8125 L 15.671875 -25.796875 L 16.5 -27.421875 L 17.46875 -31.40625 L 18.859375 -34.765625 L 20.828125 -42.09375 L 21.671875 -43.84375 L 21.984375 -45.71875 L 22.890625 -47.625 L 23.8125 -51.109375 L 24.484375 -52.890625 L 24.890625 -54.765625 L 26.09375 -58.484375 L 27.984375 -59.75 L 29.921875 -60.234375 L 31.796875 -59.53125 L 33.46875 -59.09375 L 35.21875 -58.328125 L 41.046875 -56.65625 L 42.8125 -55.890625 L 55.625 -51.6875 L 59.109375 -49.75 L 63.546875 -46.53125 L 65.078125 -45.046875 L 67.75 -41.890625 L 69.5 -38.640625 L 70.65625 -36.96875 L 72.109375 -33.40625 L 72.328125 -31.640625 L 73.4375 -27.890625 L 73.625 -23.828125 L 73.546875 -22.0625 L 73.109375 -20.109375 L 72.828125 -14.5 L 70.59375 -8.84375 L 70.1875 -7.28125 L 69.125 -5.515625 L 68.25 -3.71875 L 67.09375 -2.28125 L 66.15625 -0.59375 L 64.6875 0.828125 L 63.703125 2.421875 L 59.4375 6.03125 L 54.46875 9.03125 L 45.125 11.71875 L 39.375 11.65625 L 33.3125 10.59375 L 17 5.46875 L 15 5.125 L 13.203125 4.546875 L 11.390625 3.65625 L 9.3125 3 L 8.140625 1.71875 Z M 30.640625 -6.21875 L 38.265625 -4.171875 L 41.8125 -4.03125 L 43.90625 -4.359375 L 45.640625 -4.796875 L 47.203125 -5.875 L 48.78125 -6.765625 L 50.46875 -8.015625 L 52.890625 -10.84375 L 53.96875 -12.390625 L 55.84375 -16.6875 L 56.46875 -19.5625 L 57.109375 -25.265625 L 56.40625 -27.078125 L 55.953125 -29.109375 L 54.5 -32.375 L 52.078125 -35.359375 L 48.8125 -37.609375 L 46.140625 -38.65625 L 44.21875 -39.171875 L 42.359375 -39.875 L 39.40625 -39.71875 L 37.796875 -38.453125 L 30.328125 -15.203125 L 29.484375 -13.46875 L 29.296875 -11.734375 L 28.546875 -9.984375 L 28.71875 -7.734375 Z M 30.640625 -6.21875 "/></g></g></g><g fill="#282f66" fill-opacity="1"><g transform="translate(702.444963, 533.215301)"><g><path d="M 30.6875 16.375 L 28.984375 15.328125 L 24.71875 11.953125 L 20.78125 7.90625 L 19.625 6.375 L 15.984375 0.015625 L 14.796875 -3.625 L 13.625 -8.96875 L 13.484375 -11.046875 L 14 -16.625 L 15.78125 -23.890625 L 16.578125 -25.734375 L 17.921875 -28.03125 L 19.84375 -32.375 L 22.625 -35.65625 L 23.46875 -37.15625 L 29.296875 -42.328125 L 31.015625 -43.484375 L 32.890625 -44.078125 L 34.421875 -45.015625 L 36.234375 -45.90625 L 39.984375 -47.03125 L 45.65625 -47.828125 L 47.5625 -47.859375 L 55.1875 -46.96875 L 60.8125 -45.265625 L 69.03125 -40.671875 L 70.65625 -39.234375 L 72.234375 -38.15625 L 73.3125 -36.875 L 74.921875 -35.453125 L 78.953125 -29.015625 L 80.21875 -25.328125 L 81.015625 -21.546875 L 81.609375 -19.78125 L 81.234375 -12.125 L 79.71875 -10.546875 L 78.015625 -10.734375 L 76.3125 -11.359375 L 67.96875 -15.46875 L 66.515625 -17.25 L 65.296875 -19.53125 L 65.125 -21.3125 L 62.15625 -26.0625 L 60.75 -27.28125 L 56.578125 -29.984375 L 54.140625 -31.078125 L 50.265625 -31.609375 L 48.484375 -31.625 L 44.703125 -31.046875 L 41.328125 -29.765625 L 38.484375 -27.234375 L 37.296875 -25.671875 L 34.859375 -23.078125 L 31.171875 -14.296875 L 30.984375 -12.390625 L 31.15625 -10.390625 L 31.125 -8.609375 L 31.359375 -6.703125 L 32.921875 -3.390625 L 35.15625 -0.265625 L 36.421875 1.078125 L 37.78125 2.1875 L 40.34375 3.65625 L 42.84375 4.78125 L 44.703125 5.359375 L 48.4375 5.9375 L 50.125 5.9375 L 53.765625 4.75 L 55.125 3.71875 L 55.5 2.109375 L 54.765625 0.59375 L 49.53125 -1.671875 L 48.078125 -2.609375 L 46.46875 -3.40625 L 45.21875 -4.96875 L 45.40625 -6.671875 L 45.875 -8.4375 L 49.203125 -14.75 L 50.75 -16 L 53.859375 -15.640625 L 75.25 -5.109375 L 77.34375 -3.125 L 77.53125 -0.921875 L 76.953125 0.90625 L 73.421875 7.21875 L 72.078125 8.671875 L 71.1875 10.25 L 68.28125 13.375 L 64.390625 16.328125 L 59.6875 18.984375 L 55.921875 20.421875 L 52.234375 20.8125 L 50.515625 21.25 L 42.859375 20.875 L 41.21875 20.59375 L 39.546875 19.890625 L 37.671875 19.390625 L 32.859375 17.546875 Z M 30.6875 16.375 "/></g></g></g><g fill="#282f66" fill-opacity="1"><g transform="translate(763.766642, 563.744976)"><g><path d="M 7.21875 1.515625 L 8.578125 0.125 L 9.71875 -1.390625 L 11.625 -4.59375 L 12.671875 -6.15625 L 13.71875 -8.09375 L 14.921875 -9.359375 L 15.828125 -10.90625 L 17.15625 -12.53125 L 18.015625 -14.34375 L 20.296875 -17.421875 L 22.109375 -20.65625 L 23.453125 -22.15625 L 32.890625 -36.3125 L 33.6875 -37.8125 L 34.953125 -39.390625 L 37.328125 -43.625 L 39.15625 -45.703125 L 41.125 -48.96875 L 43.078125 -50.171875 L 45.71875 -49.203125 L 56.234375 -42.515625 L 57.5625 -41.421875 L 60.6875 -39.4375 L 62.171875 -38.234375 L 65.75 -36.0625 L 67.171875 -34.78125 L 68.703125 -33.984375 L 74.96875 -29.6875 L 76.15625 -27.890625 L 75.890625 -25.78125 L 74.65625 -24.421875 L 73.421875 -22.734375 L 72.640625 -21.078125 L 70.625 -17.71875 L 68.828125 -16.90625 L 66.59375 -17.125 L 51.359375 -27.171875 L 48.4375 -28.09375 L 46.109375 -26.328125 L 44.640625 -23.78125 L 44.640625 -21.71875 L 45.40625 -19.953125 L 51.703125 -15.859375 L 53.40625 -14.484375 L 55.0625 -13.390625 L 56.75 -12.484375 L 59.875 -10.296875 L 60.609375 -8.53125 L 60.34375 -6.578125 L 59.4375 -4.875 L 55.109375 1.25 L 53.3125 2.21875 L 51.171875 2.046875 L 49.6875 1.171875 L 48.140625 -0.09375 L 45.90625 -1.34375 L 41.859375 -4.40625 L 40.1875 -5.28125 L 37.109375 -7.328125 L 35.09375 -7.421875 L 33.265625 -6.234375 L 30.609375 -2.421875 L 29.703125 0.5 L 30.734375 2.5625 L 32.5625 3.5625 L 34.203125 4.890625 L 35.859375 5.65625 L 46.171875 12.765625 L 48.03125 15.140625 L 48 17.421875 L 46.84375 18.796875 L 43.65625 23.75 L 42.484375 25.171875 L 40.796875 26.171875 L 38.59375 25.859375 L 36.984375 25.015625 L 32.375 21.484375 L 27.390625 18.5 L 26.125 17.3125 L 8.171875 5.5625 L 7.25 3.6875 Z M 7.21875 1.515625 "/></g></g></g><g fill="#282f66" fill-opacity="1"><g transform="translate(806.142244, 591.81956)"><g><path d="M 15.84375 9.484375 L 20.5625 3.75 L 21.921875 2.421875 L 25.421875 -2.203125 L 26.796875 -3.671875 L 27.9375 -5.1875 L 30.0625 -7.125 L 31.625 -9.40625 L 34.0625 -12.3125 L 35.4375 -13.65625 L 36.453125 -15.15625 L 38.5625 -17.21875 L 45.078125 -25.40625 L 45.5 -27.390625 L 44.859375 -29.296875 L 38.453125 -34.796875 L 36.375 -36.171875 L 35.546875 -38.140625 L 36.09375 -40.421875 L 42.265625 -47.625 L 44.21875 -48.46875 L 46.4375 -47.828125 L 67.984375 -29.46875 L 69.84375 -28.28125 L 71.28125 -27.0625 L 72.625 -25.703125 L 74.0625 -24.484375 L 75.859375 -23.328125 L 77.234375 -22.171875 L 78.28125 -21.046875 L 80.140625 -19.71875 L 81 -17.78125 L 80.5 -15.71875 L 75.34375 -9.875 L 74.203125 -8.234375 L 72.25 -7.390625 L 70.03125 -8.140625 L 66.078125 -11.578125 L 64.65625 -12.53125 L 63.25 -13.828125 L 61.96875 -14.796875 L 59.8125 -15.484375 L 58.140625 -14.65625 L 56.9375 -12.9375 L 55.484375 -11.671875 L 43.625 3.046875 L 40.828125 5.921875 L 39.890625 7.34375 L 36 11.65625 L 34.5 13 L 33.671875 14.421875 L 31.3125 17.390625 L 29.75 18.9375 L 28.65625 20.390625 L 26.859375 21.34375 L 24.921875 20.703125 L 20.40625 16.921875 L 18.90625 15.90625 L 17.578125 14.53125 L 16.078125 13.515625 L 15.15625 11.5 Z M 15.84375 9.484375 "/></g></g></g></svg>