<svg xmlns="http://www.w3.org/2000/svg" xmlns:xlink="http://www.w3.org/1999/xlink" width="1440" zoomAndPan="magnify" viewBox="0 0 1080 1919.999921" height="2560" preserveAspectRatio="xMidYMid meet" version="1.0"><defs><clipPath id="ba2858d553"><path d="M 5 970.035156 L 1074 970.035156 L 1074 1920 L 5 1920 Z M 5 970.035156 " clip-rule="nonzero"/></clipPath></defs><path fill="#20b24b" d="M 233.425781 311.191406 C 233.425781 311.191406 327.625 388.882812 333.832031 419.917969 C 333.832031 419.917969 195.105469 661.125 198.101562 680.816406 C 198.101562 680.816406 70.71875 626.882812 63.441406 599.058594 C 56.375 571.019531 212.875 307.984375 233.425781 311.191406 Z M 18.695312 944.496094 C 36.679688 969.75 95.554688 950.273438 95.554688 950.273438 C 130.664062 943.640625 178.191406 938.074219 178.191406 938.074219 C 195.320312 894.839844 178.191406 827.636719 178.191406 827.636719 C 25.976562 871.941406 5.636719 849.679688 5.636719 849.679688 C 5.636719 849.679688 0.714844 919.238281 18.695312 944.496094 Z M 522.871094 585.789062 C 540.855469 611.042969 599.730469 591.566406 599.730469 591.566406 C 634.839844 584.933594 682.367188 579.367188 682.367188 579.367188 C 699.496094 536.132812 682.367188 468.929688 682.367188 468.929688 C 530.367188 513.019531 509.8125 490.976562 509.8125 490.976562 C 509.8125 490.976562 504.890625 560.320312 522.871094 585.789062 Z M 98.765625 185.347656 C 125.3125 201.183594 171.339844 159.449219 171.339844 159.449219 C 200.886719 139.332031 241.777344 114.71875 241.777344 114.71875 C 239.847656 68.058594 197.03125 13.910156 197.03125 13.910156 C 75.859375 115.789062 48.242188 103.800781 48.242188 103.800781 C 48.242188 103.800781 72.003906 169.292969 98.765625 185.347656 Z M 510.671875 88.605469 C 513.453125 119.640625 574.253906 132.269531 574.253906 132.269531 C 607.867188 144.253906 651.753906 163.300781 651.753906 163.300781 C 688.363281 134.195312 707.203125 67.632812 707.203125 67.632812 C 553.703125 29.320312 547.066406 0 547.066406 0 C 547.066406 0 507.886719 57.574219 510.671875 88.605469 Z M 776.566406 299.851562 C 785.773438 342.65625 878.257812 359.777344 878.257812 359.777344 C 930.28125 376.257812 998.789062 402.152344 998.789062 402.152344 C 1048.457031 362.132812 1065.585938 270.101562 1065.585938 270.101562 C 830.730469 217.878906 816.171875 177.214844 816.171875 177.214844 C 816.171875 177.214844 767.359375 257.042969 776.566406 299.851562 Z M 1073.507812 585.359375 C 1067.726562 563.316406 967.320312 520.722656 967.320312 520.722656 C 969.675781 536.347656 860.273438 726.617188 860.273438 726.617188 C 865.199219 751.230469 939.488281 812.441406 939.488281 812.441406 C 955.757812 815.007812 1079.285156 607.40625 1073.507812 585.359375 Z M 1073.507812 585.359375 " fill-opacity="1" fill-rule="nonzero"/><path fill="#71ff7c" d="M 187.183594 116.214844 C 187.183594 134.195312 172.625 148.960938 154.429688 148.960938 C 136.230469 148.960938 121.671875 134.40625 121.671875 116.214844 C 121.671875 98.023438 136.445312 83.46875 154.429688 83.46875 C 172.410156 83.46875 187.183594 98.023438 187.183594 116.214844 Z M 602.300781 56.503906 C 584.316406 56.503906 569.542969 71.054688 569.542969 89.25 C 569.542969 107.441406 584.316406 121.996094 602.300781 121.996094 C 620.28125 121.996094 635.054688 107.441406 635.054688 89.25 C 635.054688 71.054688 620.496094 56.503906 602.300781 56.503906 Z M 95.554688 867.019531 C 77.570312 867.019531 62.796875 881.570312 62.796875 899.761719 C 62.796875 917.957031 77.355469 932.507812 95.554688 932.507812 C 113.75 932.507812 128.308594 917.957031 128.308594 899.761719 C 128.308594 881.570312 113.539062 867.019531 95.554688 867.019531 Z M 96.410156 866.160156 C 78.425781 866.160156 63.65625 880.714844 63.65625 898.90625 C 63.65625 917.097656 78.214844 931.652344 96.410156 931.652344 C 114.609375 931.652344 129.164062 917.097656 129.164062 898.90625 C 129.164062 880.714844 114.394531 866.160156 96.410156 866.160156 Z M 599.730469 500.605469 C 581.746094 500.605469 566.976562 515.160156 566.976562 533.351562 C 566.976562 551.542969 581.53125 566.097656 599.730469 566.097656 C 617.714844 566.097656 632.484375 551.542969 632.484375 533.351562 C 632.484375 515.160156 617.929688 500.605469 599.730469 500.605469 Z M 198.746094 437.46875 C 166.417969 437.46875 140.296875 463.578125 140.296875 495.898438 C 140.296875 528.214844 166.417969 554.328125 198.746094 554.328125 C 231.070312 554.328125 257.191406 528.214844 257.191406 495.898438 C 257.402344 463.578125 231.070312 437.46875 198.746094 437.46875 Z M 909.300781 255.117188 C 883.824219 255.117188 863.058594 275.878906 863.058594 301.347656 C 863.058594 326.816406 883.824219 347.578125 909.300781 347.578125 C 934.777344 347.578125 955.542969 326.816406 955.542969 301.347656 C 955.542969 275.878906 934.777344 255.117188 909.300781 255.117188 Z M 966.890625 712.707031 C 992.367188 712.707031 1013.132812 691.945312 1013.132812 666.476562 C 1013.132812 641.007812 992.367188 620.246094 966.890625 620.246094 C 941.414062 620.246094 920.648438 641.007812 920.648438 666.476562 C 920.648438 692.160156 941.414062 712.707031 966.890625 712.707031 Z M 966.890625 712.707031 " fill-opacity="1" fill-rule="nonzero"/><path fill="#000000" d="M 156.570312 134.621094 C 155.285156 134.621094 154 134.40625 152.714844 133.980469 L 154.429688 130.128906 C 155.925781 130.769531 157.855469 130.769531 159.78125 129.699219 C 161.707031 128.628906 162.777344 127.34375 163.207031 125.632812 C 163.632812 123.921875 163.207031 121.996094 162.136719 120.496094 C 161.066406 118.785156 159.351562 117.714844 157.640625 117.714844 C 156.355469 117.5 155.070312 117.714844 153.570312 117.929688 C 151.429688 118.355469 149.289062 118.570312 146.933594 117.929688 C 144.152344 117.070312 142.011719 114.933594 140.941406 112.148438 C 139.871094 108.9375 140.296875 105.300781 142.011719 102.730469 C 145.4375 98.023438 152.5 96.738281 157.855469 99.523438 L 155.710938 103.375 C 152.289062 101.449219 147.363281 102.304688 145.4375 105.300781 C 144.367188 106.796875 144.152344 108.726562 144.792969 110.652344 C 145.4375 112.363281 146.507812 113.433594 147.792969 113.863281 C 149.289062 114.289062 151.003906 114.074219 152.714844 113.648438 C 154.429688 113.433594 156.140625 113.003906 158.066406 113.21875 C 161.066406 113.648438 163.847656 115.359375 165.5625 117.929688 C 167.273438 120.496094 167.914062 123.707031 167.273438 126.703125 C 166.632812 129.484375 164.492188 132.054688 161.492188 133.550781 C 159.996094 134.195312 158.28125 134.621094 156.570312 134.621094 Z M 165.988281 138.6875 L 145.4375 92.460938 L 141.367188 94.171875 L 161.921875 140.402344 Z M 603.15625 100.164062 C 605.726562 98.878906 607.652344 96.097656 608.507812 93.101562 C 609.148438 89.890625 608.722656 86.679688 607.007812 84.324219 C 605.9375 82.828125 604.65625 81.757812 603.15625 80.6875 C 601.65625 79.617188 600.371094 78.546875 599.730469 77.261719 C 599.089844 75.980469 599.300781 74.480469 599.945312 72.769531 C 600.800781 71.054688 602.511719 69.773438 604.441406 69.558594 C 608.078125 69.128906 611.71875 72.125 612.789062 75.980469 L 616.859375 74.910156 C 615.359375 68.917969 609.578125 64.421875 603.796875 65.277344 C 600.585938 65.707031 597.804688 67.847656 596.089844 70.628906 C 594.59375 73.410156 594.378906 76.40625 595.664062 78.976562 C 596.734375 81.117188 598.660156 82.613281 600.160156 83.898438 C 601.230469 84.753906 602.300781 85.609375 603.15625 86.679688 C 604.226562 88.179688 604.441406 89.890625 604.011719 91.816406 C 603.582031 93.742188 602.511719 95.242188 600.800781 96.097656 C 599.300781 96.953125 597.375 96.953125 595.449219 96.3125 C 593.523438 95.667969 592.238281 94.171875 591.59375 92.671875 L 587.527344 94.171875 C 588.597656 96.953125 590.738281 99.308594 593.734375 100.378906 C 595.019531 101.019531 596.519531 101.234375 598.019531 101.234375 C 600.160156 101.234375 601.871094 100.804688 603.15625 100.164062 Z M 613.859375 60.996094 L 610.007812 59.285156 L 589.453125 105.515625 L 593.308594 107.226562 Z M 95.769531 919.238281 C 98.980469 919.027344 101.976562 917.742188 103.6875 915.386719 C 105.617188 913.03125 106.257812 909.824219 105.617188 906.828125 C 104.972656 903.617188 103.261719 901.046875 100.691406 899.550781 C 99.195312 898.695312 97.480469 898.050781 95.769531 897.625 C 94.054688 897.195312 92.34375 896.765625 91.273438 895.695312 C 90.203125 894.839844 89.558594 893.34375 89.773438 891.628906 C 89.988281 889.703125 91.058594 887.777344 92.558594 886.921875 C 95.554688 884.996094 100.265625 886.28125 102.832031 889.492188 L 106.257812 886.921875 C 102.617188 882 95.339844 880.289062 90.414062 883.285156 C 87.632812 884.78125 85.921875 887.992188 85.707031 891.417969 C 85.492188 894.625 86.5625 897.410156 88.703125 899.121094 C 90.628906 900.621094 92.769531 901.261719 94.910156 901.902344 C 96.410156 902.332031 97.695312 902.761719 98.765625 903.402344 C 100.265625 904.257812 101.335938 905.96875 101.761719 907.898438 C 102.191406 909.824219 101.761719 911.75 100.691406 913.03125 C 99.621094 914.316406 97.910156 915.171875 95.980469 915.386719 C 94.054688 915.386719 92.128906 914.746094 91.058594 913.460938 L 87.847656 916.457031 C 89.773438 918.597656 92.558594 919.667969 95.554688 919.667969 C 95.554688 919.238281 95.769531 919.238281 95.769531 919.238281 Z M 97.695312 875.152344 L 93.414062 875.152344 L 93.414062 925.875 L 97.695312 925.875 Z M 596.089844 551.328125 C 599.300781 551.117188 602.300781 549.832031 604.011719 547.476562 C 605.9375 545.125 606.582031 541.914062 605.9375 538.917969 C 605.296875 535.921875 603.585938 533.136719 601.015625 531.640625 C 599.515625 530.785156 597.804688 530.140625 596.089844 529.714844 C 594.378906 529.285156 592.664062 528.855469 591.59375 527.789062 C 590.523438 526.929688 589.882812 525.433594 590.097656 523.71875 C 590.3125 521.792969 591.382812 519.867188 592.878906 519.011719 C 595.875 517.085938 600.585938 518.371094 603.15625 521.582031 L 606.582031 519.011719 C 602.941406 514.089844 595.664062 512.378906 590.738281 515.375 C 587.957031 516.871094 586.242188 520.082031 586.027344 523.507812 C 585.816406 526.71875 586.886719 529.5 589.027344 531.210938 C 590.953125 532.710938 593.09375 533.351562 595.234375 533.992188 C 596.734375 534.421875 598.019531 534.851562 599.089844 535.492188 C 600.585938 536.347656 601.65625 538.058594 602.085938 539.988281 C 602.511719 541.914062 602.085938 543.839844 601.015625 545.125 C 599.945312 546.40625 598.230469 547.261719 596.304688 547.476562 C 594.378906 547.691406 592.453125 546.835938 591.382812 545.550781 L 588.167969 548.546875 C 590.097656 550.6875 592.878906 551.757812 595.875 551.757812 C 595.664062 551.328125 595.875 551.328125 596.089844 551.328125 Z M 597.804688 507.242188 L 593.523438 507.242188 L 593.523438 557.964844 L 597.804688 557.964844 Z M 913.796875 323.394531 C 917.652344 321.679688 920.21875 318.257812 921.074219 314.191406 C 921.933594 309.695312 920.433594 304.988281 917.222656 301.5625 C 915.296875 299.636719 913.15625 298.136719 910.800781 296.640625 C 908.445312 295.140625 906.089844 293.644531 904.804688 291.71875 C 903.308594 289.578125 903.949219 287.652344 904.378906 286.582031 C 905.449219 284.441406 907.589844 282.941406 910.371094 282.515625 C 915.9375 282.085938 922.789062 286.152344 924.929688 291.503906 L 930.925781 289.148438 C 927.710938 281.230469 918.292969 275.449219 909.945312 276.09375 C 905.019531 276.519531 900.738281 279.515625 898.8125 283.796875 C 897.097656 287.652344 897.3125 291.71875 899.882812 295.355469 C 901.808594 298.136719 904.804688 300.0625 907.589844 301.988281 C 909.515625 303.273438 911.441406 304.558594 912.726562 305.84375 C 914.652344 307.769531 915.296875 310.335938 914.867188 312.90625 C 914.4375 315.046875 913.15625 316.757812 911.226562 317.613281 C 906.519531 319.753906 898.382812 317.1875 895.8125 312.261719 L 890.246094 315.257812 C 893.246094 321.039062 900.523438 324.675781 907.375 324.675781 C 909.515625 324.675781 911.871094 324.25 913.796875 323.394531 Z M 922.574219 270.742188 L 918.507812 269.246094 L 895.386719 330.457031 L 899.453125 331.953125 Z M 219.511719 528.644531 C 224.21875 524.578125 227.21875 519.011719 227.644531 513.449219 C 228.074219 507.882812 225.71875 502.316406 221.222656 498.464844 C 216.511719 494.398438 210.519531 492.6875 204.523438 493.757812 C 201.097656 494.398438 197.886719 495.898438 194.675781 497.179688 C 191.464844 498.679688 188.253906 499.964844 185.472656 500.179688 C 182.046875 500.179688 179.90625 498.039062 179.046875 496.539062 C 177.121094 493.542969 176.691406 489.90625 178.191406 486.695312 C 180.976562 480.273438 189.964844 475.992188 197.246094 477.492188 L 198.957031 469.144531 C 187.613281 466.789062 174.765625 472.996094 170.269531 483.269531 C 167.703125 489.046875 168.34375 495.898438 171.769531 501.246094 C 174.980469 506.171875 179.90625 508.738281 185.472656 508.738281 C 190.179688 508.738281 194.25 506.8125 198.101562 505.101562 C 200.886719 503.816406 203.453125 502.746094 205.808594 502.316406 C 209.019531 501.675781 212.660156 502.746094 215.230469 505.101562 C 217.582031 507.242188 218.867188 510.238281 218.65625 513.019531 C 218.441406 516.230469 216.511719 519.652344 213.515625 522.222656 C 210.519531 524.789062 206.664062 526.289062 203.453125 525.859375 L 202.597656 534.421875 C 203.238281 534.421875 203.882812 534.421875 204.308594 534.421875 C 209.875 534.421875 215.230469 532.28125 219.511719 528.644531 Z M 227.859375 536.988281 L 171.769531 465.078125 L 168.34375 467.644531 L 224.433594 539.558594 Z M 989.15625 676.535156 C 991.082031 672.039062 990.65625 666.691406 987.871094 662.410156 C 985.300781 658.558594 981.449219 656.417969 977.167969 656.628906 C 973.527344 656.628906 970.316406 658.128906 967.320312 659.625 C 965.179688 660.695312 963.039062 661.554688 961.109375 661.765625 C 958.542969 662.195312 955.542969 661.339844 953.617188 659.625 C 951.691406 657.914062 950.621094 655.558594 950.835938 653.207031 C 951.046875 650.636719 952.546875 647.855469 954.902344 645.929688 C 957.257812 643.789062 960.46875 642.71875 963.039062 642.933594 L 963.679688 636.511719 C 959.398438 636.082031 954.6875 637.796875 950.835938 641.007812 C 946.980469 644.21875 944.839844 648.496094 944.410156 652.777344 C 944.199219 657.058594 945.910156 661.339844 949.335938 664.335938 C 952.976562 667.546875 957.683594 668.828125 962.394531 667.972656 C 965.179688 667.546875 967.746094 666.261719 970.101562 665.191406 C 972.671875 663.90625 975.238281 662.835938 977.382812 662.835938 C 977.382812 662.835938 977.382812 662.835938 977.59375 662.835938 C 980.378906 662.835938 981.875 664.761719 982.734375 665.832031 C 984.230469 668.1875 984.660156 671.183594 983.375 673.753906 C 981.019531 678.890625 973.957031 682.3125 968.175781 681.03125 L 966.890625 687.234375 C 968.175781 687.449219 969.460938 687.664062 970.746094 687.664062 C 978.238281 687.878906 985.945312 683.167969 989.15625 676.535156 Z M 991.296875 688.519531 L 946.980469 631.804688 L 943.554688 634.371094 L 987.871094 691.089844 Z M 991.296875 688.519531 " fill-opacity="1" fill-rule="nonzero"/><g clip-path="url(#ba2858d553)"><path fill="#20b24b" d="M 233.425781 1281.230469 C 233.425781 1281.230469 327.625 1358.921875 333.832031 1389.953125 C 333.832031 1389.953125 195.105469 1631.160156 198.101562 1650.851562 C 198.101562 1650.851562 70.71875 1596.917969 63.441406 1569.09375 C 56.375 1541.054688 212.875 1278.019531 233.425781 1281.230469 Z M 18.695312 1914.53125 C 36.679688 1939.785156 95.554688 1920.308594 95.554688 1920.308594 C 130.664062 1913.675781 178.191406 1908.109375 178.191406 1908.109375 C 195.320312 1864.878906 178.191406 1797.671875 178.191406 1797.671875 C 25.976562 1841.976562 5.636719 1819.71875 5.636719 1819.71875 C 5.636719 1819.71875 0.714844 1889.277344 18.695312 1914.53125 Z M 522.871094 1555.824219 C 540.855469 1581.078125 599.730469 1561.601562 599.730469 1561.601562 C 634.839844 1554.96875 682.367188 1549.402344 682.367188 1549.402344 C 699.496094 1506.171875 682.367188 1438.964844 682.367188 1438.964844 C 530.367188 1483.054688 509.8125 1461.011719 509.8125 1461.011719 C 509.8125 1461.011719 504.890625 1530.355469 522.871094 1555.824219 Z M 98.765625 1155.382812 C 125.3125 1171.21875 171.339844 1129.484375 171.339844 1129.484375 C 200.886719 1109.367188 241.777344 1084.753906 241.777344 1084.753906 C 239.847656 1038.097656 197.03125 983.949219 197.03125 983.949219 C 75.859375 1085.824219 48.242188 1073.839844 48.242188 1073.839844 C 48.242188 1073.839844 72.003906 1139.332031 98.765625 1155.382812 Z M 510.671875 1058.644531 C 513.453125 1089.675781 574.253906 1102.304688 574.253906 1102.304688 C 607.867188 1114.289062 651.753906 1133.335938 651.753906 1133.335938 C 688.363281 1104.230469 707.203125 1037.667969 707.203125 1037.667969 C 553.703125 999.359375 547.066406 970.035156 547.066406 970.035156 C 547.066406 970.035156 507.886719 1027.609375 510.671875 1058.644531 Z M 776.566406 1269.886719 C 785.773438 1312.691406 878.257812 1329.8125 878.257812 1329.8125 C 930.28125 1346.292969 998.789062 1372.191406 998.789062 1372.191406 C 1048.457031 1332.167969 1065.585938 1240.136719 1065.585938 1240.136719 C 830.730469 1187.914062 816.171875 1147.25 816.171875 1147.25 C 816.171875 1147.25 767.359375 1227.082031 776.566406 1269.886719 Z M 1073.507812 1555.394531 C 1067.726562 1533.351562 967.320312 1490.761719 967.320312 1490.761719 C 969.675781 1506.382812 860.273438 1696.652344 860.273438 1696.652344 C 865.199219 1721.265625 939.488281 1782.476562 939.488281 1782.476562 C 955.757812 1785.046875 1079.285156 1577.441406 1073.507812 1555.394531 Z M 1073.507812 1555.394531 " fill-opacity="1" fill-rule="nonzero"/></g><path fill="#71ff7c" d="M 187.183594 1086.253906 C 187.183594 1104.230469 172.625 1119 154.429688 1119 C 136.230469 1119 121.671875 1104.445312 121.671875 1086.253906 C 121.671875 1068.058594 136.445312 1053.507812 154.429688 1053.507812 C 172.410156 1053.507812 187.183594 1068.058594 187.183594 1086.253906 Z M 602.300781 1026.539062 C 584.316406 1026.539062 569.542969 1041.09375 569.542969 1059.285156 C 569.542969 1077.476562 584.316406 1092.03125 602.300781 1092.03125 C 620.28125 1092.03125 635.054688 1077.476562 635.054688 1059.285156 C 635.054688 1041.09375 620.496094 1026.539062 602.300781 1026.539062 Z M 95.554688 1837.054688 C 77.570312 1837.054688 62.796875 1851.609375 62.796875 1869.800781 C 62.796875 1887.992188 77.355469 1902.546875 95.554688 1902.546875 C 113.75 1902.546875 128.308594 1887.992188 128.308594 1869.800781 C 128.308594 1851.609375 113.539062 1837.054688 95.554688 1837.054688 Z M 96.410156 1836.199219 C 78.425781 1836.199219 63.65625 1850.75 63.65625 1868.945312 C 63.65625 1887.136719 78.214844 1901.691406 96.410156 1901.691406 C 114.609375 1901.691406 129.164062 1887.136719 129.164062 1868.945312 C 129.164062 1850.75 114.394531 1836.199219 96.410156 1836.199219 Z M 599.730469 1470.640625 C 581.746094 1470.640625 566.976562 1485.195312 566.976562 1503.386719 C 566.976562 1521.582031 581.53125 1536.132812 599.730469 1536.132812 C 617.714844 1536.132812 632.484375 1521.582031 632.484375 1503.386719 C 632.484375 1485.195312 617.929688 1470.640625 599.730469 1470.640625 Z M 198.746094 1407.503906 C 166.417969 1407.503906 140.296875 1433.617188 140.296875 1465.933594 C 140.296875 1498.25 166.417969 1524.363281 198.746094 1524.363281 C 231.070312 1524.363281 257.191406 1498.25 257.191406 1465.933594 C 257.402344 1433.617188 231.070312 1407.503906 198.746094 1407.503906 Z M 909.300781 1225.15625 C 883.824219 1225.15625 863.058594 1245.914062 863.058594 1271.382812 C 863.058594 1296.851562 883.824219 1317.613281 909.300781 1317.613281 C 934.777344 1317.613281 955.542969 1296.851562 955.542969 1271.382812 C 955.542969 1245.914062 934.777344 1225.15625 909.300781 1225.15625 Z M 966.890625 1682.742188 C 992.367188 1682.742188 1013.132812 1661.980469 1013.132812 1636.511719 C 1013.132812 1611.042969 992.367188 1590.28125 966.890625 1590.28125 C 941.414062 1590.28125 920.648438 1611.042969 920.648438 1636.511719 C 920.648438 1662.195312 941.414062 1682.742188 966.890625 1682.742188 Z M 966.890625 1682.742188 " fill-opacity="1" fill-rule="nonzero"/><path fill="#000000" d="M 156.570312 1104.660156 C 155.285156 1104.660156 154 1104.445312 152.714844 1104.015625 L 154.429688 1100.164062 C 155.925781 1100.804688 157.855469 1100.804688 159.78125 1099.734375 C 161.707031 1098.664062 162.777344 1097.382812 163.207031 1095.667969 C 163.632812 1093.957031 163.207031 1092.03125 162.136719 1090.53125 C 161.066406 1088.820312 159.351562 1087.75 157.640625 1087.75 C 156.355469 1087.535156 155.070312 1087.75 153.570312 1087.964844 C 151.429688 1088.390625 149.289062 1088.605469 146.933594 1087.964844 C 144.152344 1087.109375 142.011719 1084.96875 140.941406 1082.1875 C 139.871094 1078.976562 140.296875 1075.335938 142.011719 1072.769531 C 145.4375 1068.058594 152.5 1066.777344 157.855469 1069.558594 L 155.710938 1073.410156 C 152.289062 1071.484375 147.363281 1072.339844 145.4375 1075.335938 C 144.367188 1076.835938 144.152344 1078.761719 144.792969 1080.6875 C 145.4375 1082.398438 146.507812 1083.46875 147.792969 1083.898438 C 149.289062 1084.324219 151.003906 1084.113281 152.714844 1083.683594 C 154.429688 1083.46875 156.140625 1083.042969 158.066406 1083.257812 C 161.066406 1083.683594 163.847656 1085.394531 165.5625 1087.964844 C 167.273438 1090.53125 167.914062 1093.742188 167.273438 1096.738281 C 166.632812 1099.523438 164.492188 1102.089844 161.492188 1103.589844 C 159.996094 1104.230469 158.28125 1104.660156 156.570312 1104.660156 Z M 165.988281 1108.726562 L 145.4375 1062.496094 L 141.367188 1064.207031 L 161.921875 1110.4375 Z M 603.15625 1070.199219 C 605.726562 1068.917969 607.652344 1066.132812 608.507812 1063.136719 C 609.148438 1059.925781 608.722656 1056.714844 607.007812 1054.363281 C 605.9375 1052.863281 604.65625 1051.792969 603.15625 1050.722656 C 601.65625 1049.652344 600.371094 1048.582031 599.730469 1047.300781 C 599.089844 1046.015625 599.300781 1044.515625 599.945312 1042.804688 C 600.800781 1041.09375 602.511719 1039.808594 604.441406 1039.59375 C 608.078125 1039.167969 611.71875 1042.164062 612.789062 1046.015625 L 616.859375 1044.945312 C 615.359375 1038.953125 609.578125 1034.457031 603.796875 1035.3125 C 600.585938 1035.742188 597.804688 1037.882812 596.089844 1040.664062 C 594.59375 1043.445312 594.378906 1046.445312 595.664062 1049.011719 C 596.734375 1051.152344 598.660156 1052.648438 600.160156 1053.933594 C 601.230469 1054.789062 602.300781 1055.648438 603.15625 1056.714844 C 604.226562 1058.214844 604.441406 1059.925781 604.011719 1061.851562 C 603.582031 1063.78125 602.511719 1065.277344 600.800781 1066.132812 C 599.300781 1066.988281 597.375 1066.988281 595.449219 1066.347656 C 593.523438 1065.707031 592.238281 1064.207031 591.59375 1062.710938 L 587.527344 1064.207031 C 588.597656 1066.988281 590.738281 1069.34375 593.734375 1070.414062 C 595.019531 1071.054688 596.519531 1071.269531 598.019531 1071.269531 C 600.160156 1071.269531 601.871094 1070.84375 603.15625 1070.199219 Z M 613.859375 1031.035156 L 610.007812 1029.320312 L 589.453125 1075.550781 L 593.308594 1077.261719 Z M 95.769531 1889.277344 C 98.980469 1889.0625 101.976562 1887.777344 103.6875 1885.421875 C 105.617188 1883.070312 106.257812 1879.859375 105.617188 1876.863281 C 104.972656 1873.652344 103.261719 1871.085938 100.691406 1869.585938 C 99.195312 1868.730469 97.480469 1868.085938 95.769531 1867.660156 C 94.054688 1867.230469 92.34375 1866.804688 91.273438 1865.734375 C 90.203125 1864.878906 89.558594 1863.378906 89.773438 1861.667969 C 89.988281 1859.742188 91.058594 1857.816406 92.558594 1856.957031 C 95.554688 1855.03125 100.265625 1856.316406 102.832031 1859.527344 L 106.257812 1856.957031 C 102.617188 1852.035156 95.339844 1850.324219 90.414062 1853.320312 C 87.632812 1854.816406 85.921875 1858.027344 85.707031 1861.453125 C 85.492188 1864.664062 86.5625 1867.445312 88.703125 1869.15625 C 90.628906 1870.65625 92.769531 1871.296875 94.910156 1871.941406 C 96.410156 1872.367188 97.695312 1872.796875 98.765625 1873.4375 C 100.265625 1874.292969 101.335938 1876.007812 101.761719 1877.933594 C 102.191406 1879.859375 101.761719 1881.785156 100.691406 1883.070312 C 99.621094 1884.355469 97.910156 1885.210938 95.980469 1885.421875 C 94.054688 1885.421875 92.128906 1884.78125 91.058594 1883.496094 L 87.847656 1886.492188 C 89.773438 1888.632812 92.558594 1889.703125 95.554688 1889.703125 C 95.554688 1889.277344 95.769531 1889.277344 95.769531 1889.277344 Z M 97.695312 1845.1875 L 93.414062 1845.1875 L 93.414062 1895.910156 L 97.695312 1895.910156 Z M 596.089844 1521.367188 C 599.300781 1521.152344 602.300781 1519.867188 604.011719 1517.515625 C 605.9375 1515.160156 606.582031 1511.949219 605.9375 1508.953125 C 605.296875 1505.957031 603.585938 1503.175781 601.015625 1501.675781 C 599.515625 1500.820312 597.804688 1500.175781 596.089844 1499.75 C 594.378906 1499.320312 592.664062 1498.894531 591.59375 1497.824219 C 590.523438 1496.96875 589.882812 1495.46875 590.097656 1493.757812 C 590.3125 1491.832031 591.382812 1489.90625 592.878906 1489.046875 C 595.875 1487.121094 600.585938 1488.40625 603.15625 1491.617188 L 606.582031 1489.046875 C 602.941406 1484.125 595.664062 1482.414062 590.738281 1485.410156 C 587.957031 1486.90625 586.242188 1490.117188 586.027344 1493.542969 C 585.816406 1496.753906 586.886719 1499.535156 589.027344 1501.246094 C 590.953125 1502.746094 593.09375 1503.386719 595.234375 1504.03125 C 596.734375 1504.457031 598.019531 1504.886719 599.089844 1505.527344 C 600.585938 1506.382812 601.65625 1508.097656 602.085938 1510.023438 C 602.511719 1511.949219 602.085938 1513.875 601.015625 1515.160156 C 599.945312 1516.445312 598.230469 1517.300781 596.304688 1517.515625 C 594.378906 1517.726562 592.453125 1516.871094 591.382812 1515.585938 L 588.167969 1518.585938 C 590.097656 1520.722656 592.878906 1521.792969 595.875 1521.792969 C 595.664062 1521.367188 595.875 1521.367188 596.089844 1521.367188 Z M 597.804688 1477.277344 L 593.523438 1477.277344 L 593.523438 1528 L 597.804688 1528 Z M 913.796875 1293.429688 C 917.652344 1291.714844 920.21875 1288.292969 921.074219 1284.226562 C 921.933594 1279.730469 920.433594 1275.023438 917.222656 1271.597656 C 915.296875 1269.671875 913.15625 1268.175781 910.800781 1266.675781 C 908.445312 1265.175781 906.089844 1263.679688 904.804688 1261.753906 C 903.308594 1259.613281 903.949219 1257.6875 904.378906 1256.617188 C 905.449219 1254.476562 907.589844 1252.976562 910.371094 1252.550781 C 915.9375 1252.121094 922.789062 1256.1875 924.929688 1261.539062 L 930.925781 1259.183594 C 927.710938 1251.265625 918.292969 1245.488281 909.945312 1246.128906 C 905.019531 1246.558594 900.738281 1249.554688 898.8125 1253.835938 C 897.097656 1257.6875 897.3125 1261.753906 899.882812 1265.390625 C 901.808594 1268.175781 904.804688 1270.101562 907.589844 1272.027344 C 909.515625 1273.3125 911.441406 1274.59375 912.726562 1275.878906 C 914.652344 1277.804688 915.296875 1280.375 914.867188 1282.941406 C 914.4375 1285.082031 913.15625 1286.792969 911.226562 1287.648438 C 906.519531 1289.789062 898.382812 1287.222656 895.8125 1282.300781 L 890.246094 1285.296875 C 893.246094 1291.074219 900.523438 1294.714844 907.375 1294.714844 C 909.515625 1294.714844 911.871094 1294.285156 913.796875 1293.429688 Z M 922.574219 1240.777344 L 918.507812 1239.28125 L 895.386719 1300.492188 L 899.453125 1301.988281 Z M 219.511719 1498.679688 C 224.21875 1494.613281 227.21875 1489.046875 227.644531 1483.484375 C 228.074219 1477.917969 225.71875 1472.355469 221.222656 1468.5 C 216.511719 1464.433594 210.519531 1462.722656 204.523438 1463.792969 C 201.097656 1464.433594 197.886719 1465.933594 194.675781 1467.21875 C 191.464844 1468.714844 188.253906 1470 185.472656 1470.214844 C 182.046875 1470.214844 179.90625 1468.074219 179.046875 1466.574219 C 177.121094 1463.578125 176.691406 1459.941406 178.191406 1456.730469 C 180.976562 1450.308594 189.964844 1446.027344 197.246094 1447.527344 L 198.957031 1439.179688 C 187.613281 1436.824219 174.765625 1443.03125 170.269531 1453.304688 C 167.703125 1459.085938 168.34375 1465.933594 171.769531 1471.285156 C 174.980469 1476.207031 179.90625 1478.773438 185.472656 1478.773438 C 190.179688 1478.773438 194.25 1476.847656 198.101562 1475.136719 C 200.886719 1473.851562 203.453125 1472.78125 205.808594 1472.355469 C 209.019531 1471.710938 212.660156 1472.78125 215.230469 1475.136719 C 217.582031 1477.277344 218.867188 1480.273438 218.65625 1483.054688 C 218.441406 1486.265625 216.511719 1489.691406 213.515625 1492.257812 C 210.519531 1494.828125 206.664062 1496.324219 203.453125 1495.898438 L 202.597656 1504.457031 C 203.238281 1504.457031 203.882812 1504.457031 204.308594 1504.457031 C 209.875 1504.457031 215.230469 1502.316406 219.511719 1498.679688 Z M 227.859375 1507.027344 L 171.769531 1435.113281 L 168.34375 1437.683594 L 224.433594 1509.59375 Z M 989.15625 1646.570312 C 991.082031 1642.078125 990.65625 1636.726562 987.871094 1632.445312 C 985.300781 1628.59375 981.449219 1626.453125 977.167969 1626.667969 C 973.527344 1626.667969 970.316406 1628.164062 967.320312 1629.664062 C 965.179688 1630.734375 963.039062 1631.589844 961.109375 1631.804688 C 958.542969 1632.230469 955.542969 1631.375 953.617188 1629.664062 C 951.691406 1627.949219 950.621094 1625.597656 950.835938 1623.242188 C 951.046875 1620.675781 952.546875 1617.890625 954.902344 1615.964844 C 957.257812 1613.824219 960.46875 1612.753906 963.039062 1612.96875 L 963.679688 1606.546875 C 959.398438 1606.121094 954.6875 1607.832031 950.835938 1611.042969 C 946.980469 1614.253906 944.839844 1618.535156 944.410156 1622.8125 C 944.199219 1627.09375 945.910156 1631.375 949.335938 1634.371094 C 952.976562 1637.582031 957.683594 1638.867188 962.394531 1638.011719 C 965.179688 1637.582031 967.746094 1636.296875 970.101562 1635.226562 C 972.671875 1633.945312 975.238281 1632.875 977.382812 1632.875 C 977.382812 1632.875 977.382812 1632.875 977.59375 1632.875 C 980.378906 1632.875 981.875 1634.800781 982.734375 1635.871094 C 984.230469 1638.222656 984.660156 1641.21875 983.375 1643.789062 C 981.019531 1648.925781 973.957031 1652.351562 968.175781 1651.066406 L 966.890625 1657.273438 C 968.175781 1657.488281 969.460938 1657.699219 970.746094 1657.699219 C 978.238281 1657.914062 985.945312 1653.207031 989.15625 1646.570312 Z M 991.296875 1658.558594 L 946.980469 1601.839844 L 943.554688 1604.40625 L 987.871094 1661.125 Z M 991.296875 1658.558594 " fill-opacity="1" fill-rule="nonzero"/></svg>